<?xml version="1.0" standalone="no"?>
<!DOCTYPE svg PUBLIC "-//W3C//DTD SVG 20010904//EN"
 "http://www.w3.org/TR/2001/REC-SVG-20010904/DTD/svg10.dtd">
<svg version="1.0" xmlns="http://www.w3.org/2000/svg"
 width="960.000000pt" height="960.000000pt" viewBox="0 0 960.000000 960.000000"
 preserveAspectRatio="xMidYMid meet">
<metadata>
Created by potrace 1.14, written by Peter Selinger 2001-2017
</metadata>
<g transform="translate(0.000000,960.000000) scale(0.100000,-0.100000)"
fill="#000000" stroke="none">
<path d="M3497 9541 c-59 -31 -140 -84 -180 -117 l-72 -62 -75 -4 c-130 -7
-274 -79 -316 -159 -13 -26 -13 -35 0 -72 8 -23 19 -61 25 -84 8 -27 22 -49
41 -63 33 -23 33 -23 30 35 -1 34 6 50 40 92 49 62 118 114 196 149 131 58
389 18 622 -96 42 -20 103 -49 135 -64 31 -15 57 -31 57 -36 0 -5 -6 -7 -14
-4 -15 6 -222 -31 -262 -46 -12 -5 -60 -14 -106 -20 -181 -24 -573 -179 -743
-293 -403 -271 -668 -536 -950 -952 -104 -152 -287 -393 -352 -461 -144 -153
-355 -255 -573 -279 -79 -8 -287 26 -354 59 -63 31 -122 88 -152 147 l-22 42
-7 -32 c-12 -57 23 -169 70 -221 12 -14 28 -47 34 -74 39 -160 213 -383 359
-459 142 -74 266 -94 384 -61 82 23 89 13 53 -73 -54 -126 -181 -269 -290
-326 -29 -15 -65 -22 -127 -25 -84 -4 -107 -13 -72 -26 9 -3 39 -6 68 -6 29 0
76 -7 106 -16 105 -31 213 -15 339 52 36 18 67 32 69 30 10 -11 -166 -126
-264 -173 -172 -82 -263 -103 -450 -103 -138 0 -162 3 -225 25 -119 41 -196
113 -224 208 -19 64 -19 73 5 125 14 31 16 42 6 42 -39 0 -74 -83 -82 -192
-19 -257 168 -556 453 -724 130 -77 212 -110 328 -134 118 -24 198 -25 327 -4
54 9 102 14 105 10 16 -15 -68 -81 -156 -122 -135 -63 -178 -74 -301 -74 -99
0 -110 2 -146 26 -21 14 -46 35 -55 46 -23 30 -33 6 -15 -37 36 -86 210 -202
342 -226 115 -22 224 0 318 65 22 14 41 24 44 22 5 -6 -48 -74 -115 -144 l-52
-55 -58 6 c-32 3 -79 14 -105 26 -35 15 -48 17 -48 7 0 -18 60 -107 77 -113 7
-3 13 -9 13 -14 0 -15 -109 -90 -183 -125 -88 -41 -238 -63 -331 -47 -74 13
-73 0 7 -72 85 -77 176 -119 307 -140 88 -14 117 -15 180 -5 143 22 170 30
266 75 92 43 99 44 185 44 49 -1 89 -5 89 -10 0 -4 -10 -34 -21 -66 -39 -105
-131 -217 -218 -266 l-56 -32 70 -3 c112 -5 229 32 366 114 47 28 67 34 113
34 55 0 57 -1 50 -22 -22 -72 -100 -185 -155 -224 -74 -53 -146 -85 -174 -78
-37 9 -31 0 27 -35 134 -84 230 -92 383 -34 80 30 106 46 145 85 l48 49 6 -38
c3 -21 11 -88 16 -150 10 -110 31 -245 70 -451 75 -390 199 -716 366 -963 40
-59 70 -110 66 -114 -4 -4 -1 -5 7 -3 7 1 16 -3 19 -11 2 -8 0 -11 -6 -7 -5 3
-9 0 -8 -7 2 -21 -63 -89 -77 -81 -6 4 -9 4 -5 -1 11 -12 -11 -47 -25 -39 -7
4 -9 4 -5 -1 4 -4 -27 -48 -69 -98 -72 -84 -77 -88 -91 -71 -14 18 -14 18 -8
0 5 -14 2 -17 -9 -12 -8 3 -15 1 -15 -3 0 -11 -98 -33 -111 -25 -5 3 -9 0 -9
-6 0 -8 -10 -10 -27 -6 -22 5 -25 4 -13 -4 11 -9 7 -10 -20 -5 -22 4 -30 3
-22 -3 15 -10 -74 -22 -168 -22 -70 0 -94 15 -85 53 4 15 11 27 16 27 5 0 9 8
9 17 0 14 -3 13 -20 -5 -30 -31 -32 -28 -11 21 17 40 20 42 71 50 29 4 59 12
67 18 7 6 22 9 33 6 11 -3 17 -1 14 4 -6 11 37 29 51 21 6 -3 7 -2 3 3 -7 8
73 75 90 75 5 0 23 13 40 30 18 16 37 30 42 30 6 0 8 5 5 10 -3 6 1 10 10 10
9 0 14 4 11 9 -7 11 19 33 28 23 4 -4 6 0 4 8 -2 8 3 14 10 12 6 -1 12 5 12
13 0 8 8 15 18 15 13 0 14 2 3 9 -10 6 -10 10 -1 16 6 4 9 13 6 20 -3 8 2 11
13 8 22 -6 37 25 16 33 -11 5 -9 14 13 47 15 23 31 45 37 50 6 5 2 14 -11 25
-11 10 -19 23 -18 30 1 7 0 8 -3 2 -9 -19 -33 -10 -34 13 0 21 -1 21 -9 2 -6
-16 -2 -22 24 -33 17 -8 32 -15 34 -17 5 -5 -85 -134 -149 -210 -117 -142
-185 -190 -327 -233 -51 -15 -62 -16 -57 -5 3 8 5 19 5 24 0 5 30 41 68 80 90
96 212 187 387 290 58 33 69 53 36 62 -11 3 -29 -1 -40 -9 -10 -8 -27 -11 -37
-7 -12 4 -15 3 -10 -5 4 -7 1 -12 -8 -12 -16 0 -138 -79 -144 -93 -7 -15 -41
-27 -47 -17 -4 6 -2 9 3 8 6 -2 10 0 11 5 3 23 -1 24 -23 4 -23 -22 -42 -64
-37 -82 1 -5 -1 -7 -5 -2 -4 4 -19 -3 -33 -15 l-25 -23 20 31 c52 81 101 143
119 148 11 3 27 -2 37 -11 10 -9 18 -11 18 -5 0 6 -6 13 -12 16 -7 3 -2 4 12
1 14 -3 20 -2 13 1 -7 3 -10 11 -7 18 3 7 -3 23 -13 35 l-18 22 -54 -64 c-59
-72 -141 -190 -158 -227 -4 -8 -16 -31 -28 -50 -29 -48 -117 -257 -148 -355
-39 -121 -56 -193 -61 -270 -6 -69 -5 -68 14 30 11 55 30 132 42 170 l23 70
175 6 c179 5 208 11 376 76 8 3 -11 -30 -42 -73 -31 -44 -65 -96 -75 -116 -40
-79 -148 -213 -177 -222 -10 -3 -66 -12 -127 -21 -165 -23 -240 -43 -350 -95
-109 -51 -151 -90 -184 -173 -9 -23 -39 -76 -66 -117 l-50 -75 -3 85 c-5 147
26 244 161 498 81 152 162 262 184 249 8 -5 10 -41 6 -115 -3 -66 -1 -120 6
-142 10 -34 11 -33 6 15 -11 120 35 396 90 539 48 125 145 295 208 363 11 13
17 26 13 30 -9 9 -28 -14 -108 -132 -34 -49 -87 -117 -119 -150 -71 -74 -104
-117 -211 -270 -106 -152 -141 -212 -134 -231 3 -8 2 -13 -3 -10 -4 3 -25 -32
-45 -77 -36 -81 -47 -135 -25 -121 6 3 15 1 19 -6 5 -8 9 -3 12 14 3 15 1 29
-5 33 -6 3 -7 1 -3 -5 4 -7 2 -12 -3 -12 -13 0 -14 20 -2 38 6 10 10 8 16 -10
6 -20 8 -20 12 -5 3 10 0 23 -5 30 -6 8 -5 24 3 46 10 31 12 32 20 15 4 -10 9
-25 11 -33 1 -8 6 -26 9 -40 10 -38 -8 -15 -21 27 -9 28 -12 31 -13 14 -1 -13
6 -36 14 -52 14 -27 14 -29 -1 -23 -13 5 -15 2 -9 -17 5 -17 4 -21 -5 -15 -8
5 -11 4 -6 -3 3 -6 2 -22 -4 -36 -9 -23 -12 -25 -30 -14 -11 7 -23 21 -26 31
-3 10 -8 16 -11 14 -2 -3 1 -16 8 -29 11 -20 10 -22 -3 -10 -13 10 -16 9 -21
-8 -4 -15 -1 -20 11 -18 12 2 16 -3 14 -20 -2 -22 -1 -23 15 -6 13 12 14 19 5
22 -14 4 -17 22 -3 22 19 0 20 -32 1 -65 -11 -20 -20 -42 -20 -51 0 -8 -4 -12
-10 -9 -5 3 -10 -1 -10 -10 0 -10 5 -14 12 -9 11 6 11 4 1 -7 -7 -7 -13 -23
-13 -36 0 -13 -5 -23 -11 -23 -7 0 -10 -12 -7 -29 2 -17 0 -27 -5 -24 -5 3 -7
-3 -4 -13 6 -21 14 -79 22 -163 4 -43 0 -61 -16 -88 -11 -18 -25 -30 -30 -27
-6 4 -6 11 1 19 8 9 6 17 -5 29 -9 9 -14 20 -11 24 3 5 -1 9 -10 9 -9 0 -12
-7 -9 -18 4 -10 1 -27 -5 -39 -7 -13 -7 -20 0 -20 5 0 10 6 10 14 0 8 5 18 11
22 6 4 9 -1 8 -12 -2 -11 0 -25 5 -33 6 -8 -2 -27 -21 -55 -123 -173 -115
-165 -173 -182 -30 -9 -67 -25 -82 -36 -37 -26 -144 -74 -247 -110 -123 -43
-217 -94 -247 -133 -24 -32 -84 -165 -84 -186 0 -17 273 -11 321 7 48 17 182
14 218 -6 14 -7 1274 -9 3985 -8 l3965 3 -41 65 c-22 36 -49 74 -58 85 -33 36
-42 175 -24 359 35 363 -14 555 -203 788 -111 137 -214 170 -418 133 -44 -8
-98 -15 -120 -15 -23 0 -79 -13 -125 -30 -47 -16 -92 -30 -100 -30 -8 0 -39
-11 -69 -25 -51 -24 -54 -24 -68 -8 -34 44 -113 215 -113 246 0 79 -49 195
-111 262 -51 55 -103 71 -202 61 -250 -25 -380 -43 -464 -62 -34 -8 -72 -14
-85 -14 -29 0 -203 -37 -290 -61 -36 -11 -73 -19 -81 -19 -8 0 -34 18 -58 41
-24 23 -71 59 -103 80 -54 36 -77 45 -157 63 l-27 6 -7 160 c-6 136 -10 164
-27 185 -27 35 -128 63 -202 57 -42 -3 -60 -1 -66 9 -12 18 1 39 68 106 32 32
78 82 102 112 25 30 61 73 80 95 20 23 62 75 95 116 33 41 68 83 78 93 10 10
15 23 11 29 -4 6 -3 8 3 5 13 -8 55 36 51 54 -2 7 3 13 9 14 7 0 20 11 30 25
9 14 51 66 93 115 226 270 309 444 342 715 l13 105 95 6 c147 9 264 61 361
162 l38 38 17 -33 c9 -18 30 -52 45 -74 50 -74 159 -297 159 -326 0 -43 -27
-167 -56 -255 -60 -186 -196 -396 -266 -410 -48 -10 -46 -26 3 -18 104 16 248
105 365 224 l81 83 23 -117 c29 -154 32 -397 7 -498 -24 -96 -72 -208 -113
-261 -19 -25 -28 -43 -19 -40 8 3 15 10 15 15 0 4 7 6 15 3 8 -4 33 13 64 44
58 58 120 179 151 297 27 100 44 342 29 398 -16 59 -5 54 24 -10 39 -90 87
-324 87 -428 0 -70 -26 -289 -42 -355 -26 -106 -79 -165 -207 -228 -58 -29
-89 -37 -142 -40 -85 -5 -109 1 -150 35 l-33 28 24 -40 c45 -76 60 -93 107
-123 57 -36 140 -62 197 -62 153 1 334 117 444 286 42 66 50 73 80 74 69 0
147 62 215 171 51 80 117 241 117 283 0 12 -12 -13 -26 -54 -50 -146 -138
-289 -209 -339 -17 -11 -52 -27 -77 -35 l-47 -14 10 25 c16 43 9 49 -10 8 -28
-62 -92 -149 -163 -223 -71 -73 -167 -128 -269 -151 -49 -12 -65 -11 -125 4
-38 9 -82 24 -99 33 -72 36 -136 103 -79 82 100 -38 297 31 406 144 43 44 50
63 72 181 54 286 -7 698 -123 835 l-21 25 10 -28 c18 -50 24 -277 10 -368 -16
-106 -56 -227 -102 -310 -34 -60 -92 -128 -102 -118 -2 2 12 38 32 79 66 135
77 198 76 425 -1 163 -5 217 -22 290 l-20 90 30 45 c17 25 45 65 63 90 161
230 254 449 296 700 18 110 22 175 23 345 0 191 -3 222 -28 345 -15 74 -36
165 -47 201 -17 56 -130 367 -154 423 -7 16 -5 18 11 12 36 -14 128 -36 150
-36 16 0 32 -14 54 -46 17 -25 65 -89 108 -142 99 -124 134 -171 175 -229 35
-50 137 -226 137 -236 0 -3 32 -71 70 -151 67 -138 207 -527 196 -545 -5 -8
39 -84 65 -111 8 -8 40 -50 72 -93 31 -42 60 -77 63 -77 4 0 2 6 -3 13 -158
205 -191 261 -193 314 0 45 -120 383 -179 506 -33 71 -61 132 -61 137 0 37
-362 573 -422 624 l-39 34 104 4 c96 3 110 6 179 40 55 28 92 56 141 108 71
75 144 176 134 187 -4 3 -23 -7 -43 -22 -20 -15 -63 -36 -97 -46 -64 -19 -137
-25 -137 -11 0 4 22 25 50 46 51 39 124 130 179 225 53 90 102 261 72 249 -5
-1 -29 -32 -53 -68 -42 -62 -47 -66 -99 -77 -123 -26 -293 -6 -444 52 -113 44
-194 93 -174 106 8 5 22 9 32 9 36 0 135 40 209 85 124 75 234 210 255 315 l6
35 -24 -18 c-36 -25 -100 -59 -105 -54 -2 2 12 26 31 53 51 71 67 131 69 248
1 77 -3 108 -16 132 -18 32 -109 126 -116 119 -3 -2 10 -25 27 -51 37 -56 38
-79 10 -163 -41 -122 -197 -235 -323 -236 -61 0 -159 29 -201 61 -17 13 -18
16 -5 24 8 5 32 10 53 10 71 0 124 44 175 145 17 33 29 61 27 63 -2 2 -14 -4
-27 -12 -41 -27 -128 -38 -203 -26 -98 16 -120 30 -141 92 -60 182 -245 534
-360 688 -29 38 -49 71 -46 74 3 3 17 6 30 6 22 0 47 10 161 64 52 23 128 111
165 187 108 226 54 475 -126 577 -42 24 -51 14 -14 -15 71 -56 78 -177 17
-277 -27 -43 -49 -57 -136 -86 -60 -21 -87 -24 -195 -22 -122 1 -259 24 -328
55 -28 12 -189 107 -232 137 -88 61 -457 254 -595 312 -186 78 -402 151 -427
144 -26 -6 -23 0 28 52 62 63 165 195 213 273 36 61 122 263 135 322 5 19 3
27 -8 27 -7 0 -16 -14 -20 -30 -18 -90 -118 -276 -202 -374 -19 -22 -34 -47
-34 -57 0 -26 -79 -118 -275 -318 -129 -131 -203 -199 -261 -236 -88 -58 -139
-111 -171 -177 -44 -91 -53 -128 -33 -128 5 0 42 28 82 63 222 192 308 231
533 243 192 11 345 -19 488 -96 42 -23 77 -38 77 -33 0 15 -252 151 -319 173
-149 47 -349 51 -508 10 -18 -4 -33 -7 -33 -5 0 3 173 175 234 232 1 1 26 -4
56 -12 30 -8 67 -15 82 -15 40 0 176 -45 318 -105 69 -29 143 -58 164 -65 22
-7 122 -59 223 -116 224 -127 456 -243 543 -273 87 -29 278 -45 383 -31 165
23 236 79 272 215 13 52 13 64 0 108 -8 28 -13 52 -11 54 2 3 20 -16 39 -42
53 -69 81 -162 81 -265 0 -79 -3 -91 -41 -171 -45 -93 -76 -128 -168 -194 -88
-62 -199 -105 -274 -105 -17 0 -31 -1 -31 -2 0 -2 42 -46 93 -98 91 -94 205
-253 249 -347 12 -27 46 -91 75 -144 29 -52 62 -122 73 -154 27 -80 43 -101
92 -126 57 -29 164 -30 235 -2 l52 21 -18 -37 c-40 -76 -115 -122 -201 -123
-56 0 -91 20 -126 71 -13 20 -24 31 -24 26 0 -33 111 -152 184 -199 67 -43
108 -56 171 -56 61 0 103 16 191 71 74 47 116 106 148 209 13 38 25 72 28 76
16 15 30 -74 24 -150 -9 -102 -36 -162 -111 -250 -65 -77 -59 -79 58 -21 37
18 67 30 67 26 0 -14 -94 -157 -124 -189 -38 -41 -152 -117 -186 -125 -14 -3
-56 -15 -95 -26 -38 -11 -80 -21 -93 -21 -21 0 -124 65 -199 126 -18 15 -33
24 -33 21 0 -13 251 -210 314 -247 152 -89 210 -110 353 -131 70 -9 93 -9 164
7 67 14 91 25 123 53 37 34 39 35 32 11 -16 -58 -81 -172 -133 -234 -68 -82
-128 -116 -205 -116 -91 0 -137 30 -358 229 -38 34 -70 61 -70 58 0 -5 54 -75
85 -110 9 -10 20 -15 25 -12 13 8 71 -55 63 -68 -4 -6 -1 -7 6 -2 8 4 23 -3
39 -18 41 -38 182 -123 238 -142 67 -23 141 -29 189 -16 l39 10 -54 -55 c-30
-30 -76 -66 -101 -79 -64 -33 -196 -65 -271 -65 -67 0 -193 30 -239 57 -27 16
-73 77 -173 229 -56 85 -217 305 -248 338 -30 33 -20 11 15 -33 59 -75 74 -95
172 -241 121 -181 205 -353 283 -585 116 -345 145 -487 146 -735 1 -348 -56
-565 -255 -975 -72 -148 -263 -352 -397 -423 l-61 -33 36 53 c93 136 175 361
188 518 4 36 13 121 22 189 12 99 14 176 9 380 -4 141 -10 294 -14 341 l-7 85
-14 -70 c-23 -115 -137 -315 -245 -432 -126 -137 -384 -234 -506 -192 -26 9
-34 9 -42 -2 -8 -11 -9 -10 -4 4 3 11 0 20 -10 24 -28 10 -28 -7 1 -37 27 -28
28 -32 21 -97 -13 -129 -73 -318 -146 -464 -62 -122 -168 -274 -310 -444 -41
-49 -93 -112 -115 -139 -21 -27 -68 -79 -103 -115 -35 -36 -100 -103 -144
-149 -136 -142 -197 -172 -348 -172 -159 1 -490 118 -959 341 l-104 50 -36
-33 c-19 -18 -40 -38 -46 -45 -5 -7 -35 -26 -65 -43 -30 -16 -47 -30 -37 -30
19 0 93 46 135 83 31 29 48 29 89 1 20 -13 47 -27 60 -30 13 -4 23 -10 23 -14
0 -4 12 -11 27 -15 15 -3 39 -15 54 -26 15 -10 30 -19 33 -19 3 0 57 -24 120
-54 62 -30 151 -66 197 -81 80 -26 107 -36 189 -73 19 -9 56 -35 82 -58 64
-57 213 -132 266 -135 23 -2 39 -5 36 -8 -3 -3 -42 -13 -87 -23 -65 -13 -134
-17 -327 -18 -249 0 -345 8 -600 50 -63 11 -153 24 -199 30 -107 13 -396 105
-419 133 -5 7 -12 55 -15 107 -3 52 -8 106 -13 119 -7 22 -5 23 27 17 19 -3
72 -8 119 -10 l85 -5 -70 8 c-88 10 -160 27 -188 45 -12 8 -39 19 -60 26 -96
30 -240 132 -428 300 -40 36 -67 55 -61 43 7 -12 12 -34 12 -50 0 -45 62 -262
103 -363 6 -14 11 -27 11 -30 3 -18 80 -159 85 -156 3 2 7 -6 7 -17 2 -23 65
-139 72 -133 2 3 -1 14 -8 25 -6 12 -8 21 -6 21 3 0 12 -13 20 -29 29 -55 213
-276 272 -326 124 -106 220 -168 364 -234 21 -10 16 -11 -35 -7 -55 5 -183 48
-263 90 -103 53 -314 249 -390 363 -49 72 -75 94 -42 35 95 -168 428 -540 601
-671 81 -61 162 -91 209 -76 67 21 7 -49 -69 -81 -59 -25 -182 -18 -311 17
-158 42 -208 61 -339 127 -134 67 -226 140 -456 363 -245 237 -271 265 -357
394 -44 66 -82 122 -85 125 -11 10 21 -47 65 -115 25 -38 55 -86 68 -107 21
-32 102 -124 218 -247 22 -24 60 -57 83 -74 24 -17 41 -32 38 -35 -7 -7 -122
37 -215 84 -103 51 -160 100 -239 204 -61 81 -181 309 -245 463 -94 227 -196
650 -226 932 -29 273 -30 907 -2 1088 l7 48 42 -31 c50 -37 188 -80 257 -80
54 0 308 43 364 61 54 18 55 6 5 -61 -52 -69 -154 -146 -200 -152 -37 -4 -34
-19 8 -40 25 -13 58 -18 120 -18 101 0 187 23 294 79 39 20 73 37 78 39 4 2 7
-8 7 -22 0 -14 10 -51 21 -83 l22 -57 -32 -26 c-17 -15 -61 -44 -97 -65 -35
-21 -62 -40 -60 -42 3 -3 47 23 100 57 124 80 196 164 273 319 32 64 63 130
70 146 7 17 21 52 33 79 31 73 80 228 79 251 0 11 -10 -7 -23 -40 -69 -188
-216 -362 -421 -501 -115 -79 -193 -107 -307 -112 -54 -2 -109 -1 -124 2 -26
7 -26 7 17 29 24 12 83 61 132 109 106 106 167 196 167 246 0 23 8 45 22 61
12 14 -9 -5 -47 -43 -126 -124 -296 -184 -494 -173 -115 6 -169 21 -246 68
-64 39 -84 66 -92 126 l-6 47 26 -21 c86 -67 278 -54 450 32 87 44 78 49 -13
7 -100 -47 -165 -62 -264 -62 -82 0 -126 12 -173 46 -17 13 -34 24 -36 24 -3
0 -8 -23 -12 -50 -5 -37 -10 -48 -18 -41 -7 5 -38 16 -69 24 -51 13 -178 89
-178 106 0 4 28 5 63 3 122 -8 250 43 390 156 43 34 82 62 86 62 5 0 11 4 13
9 2 5 23 25 46 45 24 20 41 36 38 36 -3 0 3 9 14 20 11 11 20 25 20 30 0 6 6
10 13 10 20 0 122 174 153 263 24 67 9 52 -30 -30 -21 -43 -50 -91 -65 -108
-15 -16 -37 -46 -49 -65 -23 -40 -255 -270 -289 -288 -22 -12 -22 -12 -9 25 7
21 11 44 8 52 -2 8 0 11 5 8 5 -3 8 6 6 21 -3 16 33 136 92 307 52 154 94 286
93 293 -4 16 -57 -67 -83 -128 -38 -91 -39 -77 -9 105 49 291 117 572 179 730
12 33 35 92 50 130 33 85 218 450 300 594 33 57 88 146 123 197 55 83 60 100
30 95 -16 -2 -6 15 28 49 20 19 40 44 46 55 5 11 -7 2 -27 -20 -53 -59 -114
-142 -124 -168 -8 -19 -10 -19 -16 -6 -6 17 45 132 65 144 5 3 10 11 10 17 0
6 -9 1 -20 -12 -11 -13 -20 -28 -20 -33 0 -6 -3 -8 -6 -4 -4 3 4 23 16 44 21
37 21 37 1 13 -38 -45 -87 -115 -94 -135 -4 -12 4 -6 23 15 16 19 30 33 30 30
0 -3 -17 -36 -37 -75 -91 -175 -190 -374 -206 -414 -9 -25 -20 -42 -23 -38 -4
3 10 47 30 97 41 103 44 115 16 80 -28 -35 -25 -13 10 71 34 84 36 99 15 99
-22 0 -19 28 14 132 18 55 28 104 24 120 -5 27 39 118 73 153 9 8 11 15 5 15
-5 0 -22 -16 -37 -35 -14 -19 -31 -32 -36 -29 -6 4 -14 1 -18 -6 -10 -17 -70
15 -71 38 0 15 -1 15 -8 -1 -6 -18 -8 -18 -21 -2 -12 15 -12 19 3 30 20 15 22
35 4 35 -8 0 -14 6 -14 13 0 6 -2 19 -4 27 -3 10 3 14 14 13 17 -1 16 1 -4 23
-23 24 -14 34 10 12 10 -10 10 -8 0 10 -13 20 -11 25 25 57 22 19 35 35 30 35
-5 0 -38 -26 -74 -57 -219 -196 -296 -276 -438 -461 -190 -246 -273 -365 -381
-547 -40 -66 -119 -194 -177 -285 -58 -91 -129 -205 -159 -255 -93 -155 -174
-231 -327 -303 -105 -51 -199 -63 -303 -38 l-50 11 62 23 c55 20 137 76 199
137 77 75 216 304 234 387 5 27 21 70 34 96 33 67 42 107 10 47 -42 -78 -113
-165 -148 -180 -118 -50 -246 -64 -346 -40 -64 16 -83 26 -159 90 -155 129
-241 248 -291 403 -8 27 -22 47 -39 55 -30 15 -66 86 -74 147 l-6 44 37 -39
c50 -55 126 -114 159 -125 115 -39 355 -52 481 -25 226 47 376 155 572 410 38
50 76 98 181 235 53 69 133 179 177 245 49 73 124 167 193 240 63 66 149 159
192 207 155 173 305 279 643 455 221 115 287 144 364 158 19 4 58 13 85 20 59
17 300 52 401 60 67 4 73 3 121 -29 89 -59 202 -159 276 -245 67 -79 147 -181
147 -188 0 -1 -22 6 -50 17 -54 21 -199 60 -225 60 -9 0 -13 -4 -10 -10 3 -5
14 -10 23 -10 52 0 212 -80 274 -138 14 -13 31 -21 37 -18 6 4 16 -4 22 -18
10 -22 9 -28 -12 -46 l-24 -20 25 -20 c14 -11 34 -20 45 -20 35 -1 98 -36 151
-84 29 -25 56 -46 60 -46 16 0 -72 83 -123 116 -44 29 -59 48 -107 136 -30 57
-72 124 -93 150 -207 256 -269 319 -409 419 -44 32 -110 74 -149 94 -38 21
-88 48 -110 60 -53 29 -228 88 -340 115 -120 29 -300 25 -388 -9 -61 -24 -84
-49 -64 -70 9 -10 8 -11 -7 -5 -16 6 -18 4 -13 -10 4 -10 3 -15 -3 -11 -6 3
-10 2 -10 -3 0 -4 -14 -24 -31 -43 -37 -40 -59 -87 -59 -125 0 -50 -28 -6 -45
71 -21 91 -14 126 31 160 70 53 158 87 247 92 99 7 124 18 190 90 52 55 156
115 255 145 23 7 42 16 42 20 0 19 -53 1 -153 -51z m1668 -951 c-3 -5 -12 -10
-18 -10 -7 0 -6 4 3 10 19 12 23 12 15 0z m-2320 -810 c3 -5 2 -10 -4 -10 -5
0 -13 5 -16 10 -3 6 -2 10 4 10 5 0 13 -4 16 -10z m-80 -79 c-9 -8 -36 -10
-30 -2 2 4 11 8 20 8 8 0 13 -3 10 -6z m26 -14 c-10 -9 -11 -8 -5 6 3 10 9 15
12 12 3 -3 0 -11 -7 -18z m175 -112 c-9 -9 -16 -13 -16 -8 0 12 22 34 28 28 2
-2 -3 -11 -12 -20z m184 -109 c0 -3 -4 -8 -10 -11 -5 -3 -10 -1 -10 4 0 6 5
11 10 11 6 0 10 -2 10 -4z m80 -25 c-1 -7 -81 -118 -104 -143 -9 -10 -16 -20
-15 -23 0 -3 -1 -9 -4 -13 -2 -4 -2 -1 -1 6 2 6 -1 12 -5 12 -11 0 -21 -26
-17 -42 1 -7 1 -10 -1 -5 -9 14 -23 7 -37 -20 -8 -16 -15 -23 -16 -17 0 5 13
30 28 55 15 24 34 59 41 77 11 25 17 30 25 21 8 -8 8 -13 -1 -16 -15 -5 -17
-23 -4 -23 5 0 17 20 27 45 9 25 20 45 24 45 4 0 12 11 17 23 10 20 43 34 43
18z m-636 -353 c-9 -18 -19 -35 -22 -38 -8 -9 10 45 20 58 18 22 19 13 2 -20z
m-1920 -334 c3 -8 2 -12 -4 -9 -6 3 -10 10 -10 16 0 14 7 11 14 -7z m112 -146
l29 -33 -32 29 c-31 28 -38 36 -30 36 2 0 16 -15 33 -32z m7119 -648 c10 -11
16 -20 13 -20 -3 0 -13 9 -23 20 -10 11 -16 20 -13 20 3 0 13 -9 23 -20z
m-5661 -1230 c54 -11 99 -63 91 -105 -3 -16 -13 -82 -21 -145 -8 -63 -21 -121
-27 -129 -10 -12 -9 -13 1 -7 10 6 12 -1 7 -36 -4 -23 -9 -146 -11 -273 -3
-126 -10 -242 -16 -257 -16 -42 -83 -97 -167 -136 -99 -47 -197 -55 -282 -23
-30 12 -64 27 -74 35 -18 13 -15 16 40 44 33 17 73 44 89 61 34 35 50 40 41
12 -4 -14 1 -23 17 -32 22 -12 22 -12 3 -20 -38 -14 4 -9 51 7 114 38 223 134
261 226 l13 33 -19 -25 c-11 -14 -18 -27 -15 -29 2 -2 -1 -10 -7 -18 -9 -10
-15 -11 -26 -2 -10 9 -17 9 -24 2 -8 -8 -6 -11 6 -10 10 1 20 -4 23 -12 3 -9
0 -11 -9 -6 -8 5 -11 5 -7 1 10 -11 -44 -67 -59 -62 -7 3 -12 1 -10 -4 2 -11
-9 -18 -91 -62 -59 -32 -60 -32 -86 -13 -15 11 -17 17 -7 29 6 7 11 18 10 22
-4 15 21 65 29 60 4 -2 8 3 9 12 1 9 14 48 30 86 25 61 34 74 81 103 29 19 73
53 97 77 25 23 47 41 49 39 2 -3 3 8 2 22 l-1 26 -28 -31 c-15 -17 -31 -29
-36 -26 -4 3 -25 -13 -47 -35 -47 -49 -107 -86 -151 -94 -39 -6 -42 4 -10 32
73 65 158 184 157 218 -1 5 -10 -8 -22 -30 -29 -56 -102 -147 -140 -175 -53
-39 -171 -116 -205 -133 -36 -19 -216 -67 -252 -67 -22 0 -20 3 15 28 128 94
200 228 219 410 8 70 -10 49 180 206 50 40 124 108 165 150 65 66 78 76 100
70 14 -4 43 -10 64 -14z m1305 -146 c-28 -30 -116 -93 -105 -75 8 12 118 101
125 101 3 0 -6 -12 -20 -26z m-136 -160 c22 -44 21 -49 -4 -91 -16 -25 -24
-31 -29 -22 -11 21 -22 134 -14 142 15 15 30 5 47 -29z m4121 -254 c1 -226
-13 -436 -27 -400 -25 65 -103 213 -152 287 l-54 82 69 83 c38 46 86 113 107
150 l38 66 9 -41 c4 -23 9 -125 10 -227z m-5371 -25 c-3 -9 -8 -14 -10 -11 -3
3 -2 9 2 15 9 16 15 13 8 -4z m1355 -1249 c15 -13 38 -34 52 -45 21 -18 23
-22 10 -32 -13 -9 -12 -10 3 -5 10 3 28 -1 40 -9 20 -14 20 -15 3 -15 -26 0
-12 -13 16 -15 12 -1 24 -8 26 -16 3 -11 1 -11 -7 1 -9 12 -11 11 -11 -7 0
-13 1 -25 3 -27 1 -2 -5 -12 -14 -22 -9 -11 -24 -34 -34 -53 l-17 -35 -15 35
c-8 19 -30 75 -48 124 -18 50 -38 102 -44 118 -13 34 0 35 37 3z m227 -166
c24 -17 80 -44 124 -61 89 -34 89 -34 94 -148 2 -59 6 -54 -82 -92 -106 -46
-129 -91 -97 -181 15 -41 8 -49 -16 -20 -35 39 -178 332 -178 364 0 4 20 35
44 68 25 33 48 70 51 80 8 26 8 26 60 -10z m3835 -290 c0 -5 -4 -10 -10 -10
-5 0 -10 5 -10 10 0 6 5 10 10 10 6 0 10 -4 10 -10z m-3906 -106 c3 -8 2 -12
-4 -9 -6 3 -10 10 -10 16 0 14 7 11 14 -7z m-1287 -80 c2 -6 -3 -14 -12 -18
-9 -3 -13 -2 -10 4 3 6 2 10 -4 10 -5 0 -13 -4 -16 -10 -3 -5 -10 -10 -16 -10
-5 0 -1 9 9 19 18 21 43 23 49 5z m-87 -118 c0 -7 -8 -20 -17 -27 -15 -11 -16
-11 -6 0 6 7 9 20 6 27 -3 8 0 14 6 14 6 0 11 -6 11 -14z m-362 -111 c-6 -14
-15 -25 -19 -25 -5 0 -6 -7 -3 -15 3 -8 -3 -27 -13 -42 -27 -40 -43 -81 -38
-95 3 -7 -2 -33 -10 -58 -13 -38 -14 -40 -9 -10 8 50 5 99 -6 120 -8 15 -6 20
10 25 11 3 20 14 20 23 0 15 2 15 11 2 9 -12 10 -11 6 7 -3 15 5 33 27 58 17
19 32 35 33 35 2 0 -3 -11 -9 -25z m-98 -153 c0 -15 -2 -15 -10 -2 -13 20 -13
33 0 25 6 -3 10 -14 10 -23z m-15 -22 c23 0 28 -20 9 -41 -15 -17 -16 -25 -6
-52 11 -30 10 -31 -4 -12 -15 19 -16 18 -10 -20 6 -37 5 -39 -9 -21 -18 24
-19 38 -2 55 10 10 8 15 -6 26 -19 14 -16 55 3 55 5 0 8 6 6 13 -1 6 -1 9 1 5
3 -5 11 -8 18 -8z m-55 -69 c0 -4 -7 -8 -15 -8 -16 0 -20 9 -9 20 8 8 24 -1
24 -12z m-2 -51 c23 -30 29 -60 12 -60 -5 0 -7 8 -4 18 5 14 4 14 -6 -2 -10
-14 -10 -20 0 -26 7 -4 8 -10 3 -13 -6 -4 -15 5 -21 18 -12 26 -32 34 -32 13
0 -10 -3 -9 -9 1 -7 10 -13 4 -26 -23 -13 -28 -20 -34 -27 -24 -7 10 -8 8 -6
-6 3 -22 38 -31 38 -11 0 8 4 16 9 19 4 3 6 -6 3 -20 -4 -20 -10 -25 -31 -23
-14 2 -34 -1 -43 -6 -17 -10 -37 -67 -22 -64 20 3 34 -2 34 -13 0 -9 -3 -9
-12 0 -9 9 -14 7 -24 -6 -12 -15 -13 -14 -14 10 0 15 5 39 12 55 6 15 11 31
10 35 -1 4 5 5 13 2 11 -5 13 -2 9 10 -7 19 22 52 30 33 3 -6 5 -3 4 8 -2 25
30 87 41 80 5 -3 11 2 15 10 8 22 20 18 44 -15z m275 -55 c-3 -9 -8 -14 -10
-11 -3 3 -2 9 2 15 9 16 15 13 8 -4z m-300 -37 c2 -7 -3 -25 -11 -40 -16 -28
-32 -37 -32 -18 0 6 5 10 11 10 5 0 8 4 4 9 -3 5 0 13 6 16 5 4 8 13 5 21 -3
8 -1 14 3 14 5 0 11 -6 14 -12z m-98 -79 c-6 -19 -4 -21 14 -16 11 3 24 1 27
-4 3 -5 -2 -9 -10 -9 -9 0 -16 -5 -16 -11 0 -5 5 -7 11 -4 6 4 5 -2 -2 -13
-14 -23 -31 -20 -22 3 3 9 0 22 -7 30 -7 8 -10 22 -6 30 9 23 18 18 11 -6z
m48 7 c4 -10 1 -13 -8 -9 -8 3 -12 9 -9 14 7 12 11 11 17 -5z m4997 -16 c21
-6 22 -8 8 -15 -10 -4 -26 0 -40 9 -24 17 -11 20 32 6z m-5100 -85 c0 -5 -5
-3 -10 5 -5 8 -10 20 -10 25 0 6 5 3 10 -5 5 -8 10 -19 10 -25z m46 14 c19
-22 19 -22 -2 -11 -12 6 -24 8 -28 4 -4 -3 -4 1 0 11 8 21 7 21 30 -4z m-10
-31 c5 -7 3 -8 -6 -3 -10 6 -12 4 -7 -9 4 -9 3 -15 -2 -11 -5 3 -12 -1 -15 -7
-3 -7 -4 -4 -3 7 1 11 7 23 12 27 13 10 13 10 21 -4z m4904 -358 c-8 -5 -19
-10 -25 -10 -5 0 -3 5 5 10 8 5 20 10 25 10 6 0 3 -5 -5 -10z m-160 -80 c-8
-5 -19 -10 -25 -10 -5 0 -3 5 5 10 8 5 20 10 25 10 6 0 3 -5 -5 -10z m-480
-214 c0 -2 -13 -9 -30 -15 -35 -12 -41 -5 -7 9 25 10 37 12 37 6z m-73 -32
c-3 -3 -12 -4 -19 -1 -8 3 -5 6 6 6 11 1 17 -2 13 -5z m-50 -11 c-9 -2 -15 -8
-12 -12 2 -5 -8 -6 -23 -3 l-27 6 25 7 c14 4 32 7 40 7 10 0 9 -2 -3 -5z m-60
-19 c13 -4 20 -11 17 -16 -4 -7 6 -8 27 -3 25 4 30 3 19 -4 -12 -9 -10 -11 10
-12 17 -1 19 -3 8 -6 -17 -4 -176 31 -186 42 -7 7 78 6 105 -1z m130 -40 c-3
-3 -12 -4 -19 -1 -8 3 -5 6 6 6 11 1 17 -2 13 -5z"/>
<path d="M2130 4351 c0 -11 4 -22 9 -25 4 -3 6 6 3 19 -5 30 -12 33 -12 6z"/>
<path d="M2125 4194 c-9 -15 -12 -23 -6 -20 11 7 35 46 28 46 -3 0 -12 -12
-22 -26z"/>
<path d="M1970 4202 c0 -14 -108 -127 -154 -161 -25 -19 -44 -37 -41 -39 9 -9
92 61 148 125 52 60 66 83 52 83 -3 0 -5 -3 -5 -8z"/>
<path d="M2097 4159 c7 -7 15 -10 18 -7 3 3 -2 9 -12 12 -14 6 -15 5 -6 -5z"/>
<path d="M2114 4025 c-18 -14 -18 -14 4 -8 12 3 22 9 22 14 0 12 -3 11 -26 -6z"/>
<path d="M2063 4005 c-3 -9 -3 -18 -1 -21 3 -3 8 4 11 16 6 23 -1 27 -10 5z"/>
<path d="M2015 3939 c-4 -6 -5 -12 -2 -15 2 -3 7 2 10 11 7 17 1 20 -8 4z"/>
<path d="M3580 2759 c0 -5 5 -7 10 -4 6 3 10 8 10 11 0 2 -4 4 -10 4 -5 0 -10
-5 -10 -11z"/>
<path d="M3620 2750 c6 -11 13 -20 16 -20 2 0 0 9 -6 20 -6 11 -13 20 -16 20
-2 0 0 -9 6 -20z"/>
<path d="M3556 2717 c3 -10 9 -15 12 -12 3 3 0 11 -7 18 -10 9 -11 8 -5 -6z"/>
<path d="M3587 2724 c-9 -16 18 -32 31 -18 7 8 8 15 2 19 -6 3 -10 0 -10 -7 0
-10 -2 -10 -9 1 -5 7 -11 9 -14 5z"/>
<path d="M1901 1974 c0 -11 3 -14 6 -6 3 7 2 16 -1 19 -3 4 -6 -2 -5 -13z"/>
<path d="M1865 1919 c-4 -6 -5 -12 -2 -15 2 -3 7 2 10 11 7 17 1 20 -8 4z"/>
<path d="M1731 1729 c-8 -14 -16 -18 -20 -11 -4 6 -14 -3 -24 -21 l-17 -32 20
24 c12 14 20 18 20 10 0 -11 2 -11 10 1 8 13 11 12 22 -3 13 -17 14 -17 15 3
1 12 -3 18 -9 14 -6 -4 -8 1 -3 15 8 27 3 27 -14 0z"/>
<path d="M4120 9588 c109 -45 147 -68 195 -118 108 -111 200 -240 234 -330 8
-19 29 -70 48 -113 19 -42 32 -85 29 -95 -3 -9 -2 -37 3 -62 6 -31 9 -37 11
-20 2 22 3 21 12 -10 5 -19 12 -118 14 -220 2 -102 3 -189 4 -193 0 -5 5 -5
12 -1 7 5 9 2 6 -7 -3 -8 5 -22 18 -32 l24 -18 0 35 c0 57 -22 90 -33 49 -2
-10 -2 27 0 82 5 101 15 132 58 190 12 17 50 84 85 150 35 66 66 125 70 130 4
6 24 48 45 95 60 133 85 238 92 378 6 117 5 122 -14 122 -19 0 -20 -9 -26
-132 -4 -73 -13 -158 -20 -188 -16 -66 -75 -207 -89 -216 -9 -6 -245 21 -284
31 -6 2 -21 24 -32 49 -56 118 -202 322 -266 371 -58 45 -148 85 -185 84 -35
0 -35 -1 -11 -11z m728 -560 c6 -1 12 -6 12 -12 0 -6 5 -4 11 4 18 25 -1 -29
-29 -85 -32 -64 -104 -176 -124 -193 -14 -11 -17 -3 -27 65 -6 43 -20 107 -31
141 -25 81 -25 80 8 85 24 3 145 0 180 -5z"/>
<path d="M5519 9048 c-17 -24 -18 -29 -6 -19 18 14 42 51 33 51 -3 0 -15 -15
-27 -32z"/>
<path d="M4304 8705 c22 -17 40 -20 32 -6 -3 5 -16 11 -28 14 -22 6 -22 5 -4
-8z"/>
<path d="M6080 8256 c0 -3 34 -21 77 -41 42 -21 99 -53 127 -73 103 -72 203
-148 291 -222 50 -41 113 -93 140 -115 28 -21 52 -42 55 -45 14 -15 40 -32 40
-26 0 9 -56 63 -150 146 -40 36 -81 72 -89 81 -85 84 -282 218 -393 269 -61
27 -98 37 -98 26z"/>
<path d="M4444 8231 c-60 -18 -148 -60 -94 -45 103 29 132 34 188 34 75 0 122
-18 149 -56 l21 -29 -112 3 c-95 3 -125 -1 -211 -24 -55 -15 -112 -27 -127
-28 -14 -1 -24 -4 -22 -8 2 -4 -6 -10 -18 -14 -13 -3 -61 -24 -106 -45 -89
-41 -109 -47 -78 -24 11 8 16 15 10 15 -5 0 -20 -9 -34 -20 -18 -15 -20 -18
-6 -13 13 4 17 3 12 -5 -4 -7 -13 -12 -20 -12 -20 0 -165 -112 -216 -166 l-45
-48 59 53 c116 103 216 163 395 236 145 60 247 85 344 85 94 0 212 -17 249
-36 27 -14 58 -10 58 8 0 6 14 8 35 5 38 -6 42 -2 21 26 -16 21 -27 22 -20 2
11 -28 -13 -15 -37 19 -62 91 -245 131 -395 87z"/>
<path d="M5064 8140 c-22 -9 -54 -29 -72 -45 -26 -21 -30 -30 -21 -41 18 -22
43 -16 75 17 34 36 88 66 141 78 35 8 34 9 -23 9 -37 0 -77 -7 -100 -18z m-49
-70 c-3 -5 -12 -10 -18 -10 -7 0 -6 4 3 10 19 12 23 12 15 0z"/>
<path d="M4180 8100 c-9 -6 -10 -10 -3 -10 6 0 15 5 18 10 8 12 4 12 -15 0z"/>
<path d="M4130 8075 c-14 -8 -20 -14 -14 -15 5 0 19 7 30 15 24 18 16 19 -16
0z"/>
<path d="M6537 8059 c21 -21 117 -88 183 -128 62 -37 140 -61 250 -76 61 -8
40 10 -28 24 -53 11 -153 57 -206 94 l-28 20 11 -22 c12 -22 -19 -5 -136 74
-37 26 -66 34 -46 14z"/>
<path d="M4079 8033 c-13 -16 -12 -17 4 -4 16 13 21 21 13 21 -2 0 -10 -8 -17
-17z"/>
<path d="M3072 7714 c-12 -13 -19 -24 -14 -24 11 0 47 39 41 44 -2 2 -14 -7
-27 -20z"/>
<path d="M3391 7664 c-17 -21 -28 -40 -25 -43 2 -3 11 5 19 17 9 11 23 28 31
37 9 9 14 18 11 21 -2 3 -19 -12 -36 -32z"/>
<path d="M3230 7590 c-6 -11 -8 -20 -6 -20 3 0 10 9 16 20 6 11 8 20 6 20 -3
0 -10 -9 -16 -20z"/>
<path d="M3318 7563 c-45 -64 -56 -85 -24 -48 26 31 68 95 62 95 -2 0 -19 -21
-38 -47z"/>
<path d="M6146 6808 c38 -75 52 -118 80 -253 44 -206 55 -363 44 -580 -18
-336 -31 -410 -112 -670 -45 -143 -83 -237 -158 -393 -58 -119 -63 -91 48
-277 75 -126 185 -247 241 -267 l36 -12 -35 -6 c-19 -3 -71 -2 -115 2 -66 7
-96 16 -173 54 -52 26 -115 63 -140 83 -26 20 -73 54 -105 75 -80 52 -205 178
-251 254 -22 34 -41 62 -43 62 -2 0 13 -30 33 -67 38 -69 63 -102 140 -184 24
-26 55 -68 70 -95 27 -49 96 -138 124 -161 24 -20 1 -15 -50 11 -46 23 -95 54
-210 133 -35 24 -68 38 -91 39 -40 2 -121 35 -145 58 -8 9 -43 37 -77 63 -81
61 -240 199 -296 256 -27 29 -41 50 -36 58 5 8 4 10 -3 5 -7 -4 -12 -2 -12 4
0 6 -4 8 -10 5 -5 -3 -7 0 -4 9 3 8 -14 36 -43 69 -106 120 -257 341 -380 557
-157 278 -228 431 -270 590 l-20 75 4 -144 c9 -330 -82 -775 -237 -1162 -54
-135 -163 -365 -179 -379 -4 -3 -41 -57 -83 -120 -42 -63 -106 -143 -141 -177
-115 -112 -301 -205 -373 -187 -16 4 -24 2 -24 -6 0 -19 132 -5 186 19 l42 19
18 -46 c30 -78 28 -92 -7 -52 l-32 35 29 -53 c56 -101 196 -266 315 -369 223
-194 453 -315 621 -326 79 -5 64 8 -25 22 -236 38 -575 263 -759 503 -58 75
-81 122 -113 233 l-17 59 38 33 c60 51 79 52 127 6 59 -55 89 -74 48 -30 -45
48 -32 47 27 -2 26 -21 58 -44 72 -51 14 -7 54 -31 89 -54 48 -30 60 -42 45
-44 -10 -2 -23 -9 -29 -14 -7 -7 1 -8 26 -4 40 7 98 -9 116 -32 7 -9 16 -13
19 -9 11 11 -6 25 -54 43 -46 17 -186 119 -228 165 -12 13 -40 55 -63 93 -34
57 -39 71 -29 84 20 24 89 72 104 72 7 0 20 -27 30 -61 70 -250 368 -421 548
-315 55 33 143 124 151 158 6 24 4 27 -22 30 -34 4 -40 27 -15 58 l19 23 22
-22 c27 -27 37 -21 51 27 11 40 14 210 4 236 -5 13 -23 16 -88 17 l-81 2 90
11 c125 16 223 13 343 -13 57 -12 106 -20 109 -17 9 8 -67 74 -112 98 -48 25
-95 59 -95 69 0 4 19 12 43 18 64 17 77 28 45 40 -78 30 -261 35 -360 10 -20
-5 -83 -14 -140 -19 -94 -9 -167 -22 -288 -52 -25 -6 -62 -14 -83 -18 -21 -4
-47 -16 -59 -26 -16 -15 -15 -11 6 21 50 74 120 238 213 502 8 23 18 42 21 41
12 -2 86 14 102 23 13 7 13 8 0 9 -8 0 -32 -5 -53 -11 -22 -6 -41 -8 -44 -5
-3 2 6 40 20 83 31 96 123 478 132 551 4 28 10 52 13 52 4 0 25 -39 46 -86 42
-92 236 -411 292 -481 19 -23 34 -43 34 -45 0 -2 -51 -4 -113 -5 -61 -1 -124
-6 -140 -10 -15 -5 37 -7 122 -5 l149 4 32 -43 c153 -209 210 -277 351 -415
98 -95 252 -223 343 -286 10 -7 -31 -101 -72 -163 -31 -47 -126 -160 -162
-192 -14 -12 -35 -23 -47 -23 -13 0 -23 -4 -23 -10 0 -6 32 -10 75 -10 60 0
92 6 154 30 72 28 157 76 190 108 10 10 16 10 27 1 17 -14 12 -22 -29 -50
l-32 -22 29 31 c17 18 25 32 19 32 -12 0 -118 -118 -112 -125 7 -6 89 52 137
96 32 31 106 121 128 157 1 2 19 -7 41 -21 51 -32 129 -66 176 -77 l38 -8 -53
56 c-52 55 -98 114 -98 126 0 3 39 -21 88 -53 193 -128 241 -146 402 -146 88
0 126 4 163 18 60 24 67 52 8 31 -37 -12 -43 -12 -83 11 -24 13 -63 44 -87 69
l-44 45 27 11 c15 5 33 10 41 10 7 0 35 9 62 21 50 21 91 54 125 102 l20 28
-21 16 c-29 20 -25 67 6 71 14 2 23 -3 26 -15 3 -14 6 -12 16 12 41 97 56 329
24 358 -16 14 -21 14 -57 -4 -21 -10 -42 -16 -47 -14 -4 3 -10 1 -14 -5 -8
-13 -25 -13 -25 -1 0 5 13 12 29 16 16 3 69 22 117 41 48 19 103 34 122 34 42
0 114 -20 125 -35 11 -14 -1 -220 -17 -289 -8 -31 -12 -56 -11 -56 6 0 84 140
104 184 10 24 27 70 36 103 23 82 39 103 76 103 42 0 46 23 -72 -417 -10 -39
-24 -104 -29 -145 -6 -40 -17 -122 -25 -183 -9 -60 -23 -171 -31 -245 -8 -74
-19 -147 -24 -162 -10 -32 -2 -35 51 -16 75 25 191 123 269 226 64 86 123 220
160 367 37 145 37 156 0 77 -40 -84 -81 -143 -147 -208 -56 -55 -82 -69 -64
-35 22 40 51 204 51 285 0 102 -24 301 -51 414 -20 89 -19 102 12 102 32 0 21
16 -20 30 -33 11 -40 18 -46 48 -4 19 -24 83 -45 141 -22 58 -55 158 -76 221
-46 144 -75 223 -80 217 -3 -2 10 -44 27 -93 17 -49 40 -125 50 -169 11 -44
26 -97 34 -117 8 -21 13 -38 10 -38 -3 0 -26 33 -52 73 -39 61 -127 183 -170
237 -7 8 -31 40 -55 71 -57 74 -179 210 -250 279 -64 62 -78 90 -78 158 0 119
-57 338 -123 474 -23 48 -45 88 -50 88 -4 0 4 -23 19 -52z m314 -815 l131
-138 -98 -7 c-58 -4 -119 -14 -149 -26 l-51 -19 4 71 c10 200 16 256 23 256 5
0 67 -62 140 -137z m162 -175 c44 -35 265 -391 283 -455 8 -29 -13 -30 -111
-4 -69 19 -72 19 -145 0 -282 -74 -460 -146 -488 -198 -21 -36 -18 -1 5 69 24
74 83 303 100 390 9 44 10 45 89 78 44 19 123 47 175 62 52 16 83 29 69 29
-36 1 -150 -31 -242 -68 -43 -17 -79 -31 -81 -31 -3 0 1 34 9 76 3 12 13 24
22 27 10 3 36 13 58 21 51 19 234 22 257 4z m-1751 -775 c13 -16 12 -17 -3 -4
-17 13 -22 21 -14 21 2 0 10 -8 17 -17z m2171 -174 c9 -94 8 -132 -6 -219 -20
-126 -23 -144 -25 -148 0 -2 -20 17 -43 42 -22 25 -48 46 -56 46 -10 0 -13 7
-9 23 3 12 15 60 27 107 33 134 83 281 93 271 5 -5 13 -60 19 -122z m-864 21
c2 -25 -4 -44 -21 -64 -23 -28 -24 -28 -55 -12 -42 22 -41 47 6 85 47 39 66
36 70 -9z m-178 -90 c0 -5 -4 -10 -10 -10 -5 0 -10 5 -10 10 0 6 5 10 10 10 6
0 10 -4 10 -10z m347 -38 c-12 -46 -5 -72 23 -79 15 -4 20 -14 20 -40 0 -46
-50 -97 -110 -113 -43 -12 -43 -11 -82 28 -38 38 -39 41 -29 77 8 30 7 42 -4
59 -8 11 -15 36 -14 56 l1 35 12 -34 c7 -19 24 -44 39 -54 36 -28 73 -11 115
53 17 28 34 50 36 50 2 0 -1 -17 -7 -38z m-2024 -189 c-7 -2 -19 -2 -25 0 -7
3 -2 5 12 5 14 0 19 -2 13 -5z m2638 -49 l47 -46 -18 -53 c-10 -28 -25 -66
-34 -83 -30 -58 -18 -57 69 8 53 40 70 48 81 39 21 -17 17 -40 -17 -93 -74
-118 -198 -245 -260 -268 -18 -7 -20 -5 -16 14 6 23 87 512 87 523 0 13 18 1
61 -41z m-1489 3 c44 -15 67 -30 95 -65 21 -26 32 -43 25 -38 -6 4 -12 3 -12
-3 0 -5 -14 -32 -31 -60 -26 -41 -35 -49 -46 -39 -8 6 -12 17 -9 25 10 24 -18
14 -59 -22 -54 -47 -108 -71 -208 -93 l-84 -18 60 70 c64 76 136 182 164 240
12 27 21 35 32 30 9 -4 42 -16 73 -27z m1697 -77 c-31 -58 -51 -71 -57 -38 -4
19 80 127 86 110 2 -6 -11 -39 -29 -72z m-3113 5 c8 -21 -12 -68 -41 -95 -19
-18 -31 -21 -59 -16 -44 8 -55 39 -32 84 16 31 19 32 109 40 10 1 20 -5 23
-13z m240 -155 c-6 -36 -4 -41 23 -54 88 -46 33 -161 -95 -200 -58 -17 -63
-17 -97 -1 -75 35 -103 86 -76 136 8 16 5 27 -15 54 -14 19 -26 42 -26 52 0
15 3 14 16 -6 19 -26 93 -61 131 -61 43 0 100 39 119 81 22 50 28 49 20 -1z"/>
<path d="M4151 6625 c-1 -11 -4 -31 -6 -45 l-6 -25 11 25 c6 13 9 33 7 45 -4
19 -4 19 -6 0z"/>
<path d="M7540 6486 c0 -2 8 -10 18 -17 15 -13 16 -12 3 4 -13 16 -21 21 -21
13z"/>
<path d="M6640 6215 c0 -5 5 -17 10 -25 5 -8 10 -10 10 -5 0 6 -5 17 -10 25
-5 8 -10 11 -10 5z"/>
<path d="M5284 5363 c3 -10 10 -37 16 -61 12 -45 99 -227 105 -220 3 2 -15 44
-39 94 -24 49 -52 115 -61 147 -9 31 -19 57 -21 57 -3 0 -3 -8 0 -17z"/>
<path d="M4298 5303 c7 -3 16 -2 19 1 4 3 -2 6 -13 5 -11 0 -14 -3 -6 -6z"/>
<path d="M4205 5290 c-14 -7 -8 -8 20 -3 22 3 42 7 44 9 9 8 -45 2 -64 -6z"/>
<path d="M4563 5233 c8 -7 88 -6 95 2 3 3 -19 5 -48 5 -29 0 -50 -3 -47 -7z"/>
<path d="M4410 5220 l-75 -6 65 -1 c36 -1 85 2 110 6 40 8 41 8 10 8 -19 0
-69 -3 -110 -7z"/>
<path d="M4178 5193 c7 -3 16 -2 19 1 4 3 -2 6 -13 5 -11 0 -14 -3 -6 -6z"/>
<path d="M4108 5183 c6 -2 18 -2 25 0 6 3 1 5 -13 5 -14 0 -19 -2 -12 -5z"/>
<path d="M2646 5122 c-22 -27 -24 -32 -7 -17 20 17 47 55 39 55 -2 0 -16 -17
-32 -38z"/>
<path d="M5410 5063 c0 -6 8 -17 18 -24 16 -13 16 -13 2 6 -8 11 -16 22 -17
24 -2 2 -3 0 -3 -6z"/>
<path d="M5851 5063 c-1 -14 66 -163 73 -163 7 0 -10 43 -44 115 -15 33 -29
55 -29 48z"/>
<path d="M5446 5007 c3 -10 9 -15 12 -12 3 3 0 11 -7 18 -10 9 -11 8 -5 -6z"/>
<path d="M3217 4974 c-10 -13 -14 -24 -10 -24 9 0 36 40 31 45 -2 2 -11 -8
-21 -21z"/>
<path d="M2450 4949 c-17 -13 -18 -17 -5 -10 33 17 51 31 40 31 -5 0 -21 -10
-35 -21z"/>
<path d="M5180 4941 c0 -6 4 -13 10 -16 6 -3 7 1 4 9 -7 18 -14 21 -14 7z"/>
<path d="M3126 4862 c-58 -64 -61 -69 -17 -27 45 43 99 106 89 105 -2 -1 -34
-36 -72 -78z"/>
<path d="M4088 4913 c7 -3 16 -2 19 1 4 3 -2 6 -13 5 -11 0 -14 -3 -6 -6z"/>
<path d="M2360 4900 c-9 -6 -10 -10 -3 -10 6 0 15 5 18 10 8 12 4 12 -15 0z"/>
<path d="M5630 4776 c0 -2 8 -10 18 -17 15 -13 16 -12 3 4 -13 16 -21 21 -21
13z"/>
<path d="M2960 4730 c-9 -6 -10 -10 -3 -10 6 0 15 5 18 10 8 12 4 12 -15 0z"/>
<path d="M5660 4736 c0 -2 7 -7 16 -10 8 -3 12 -2 9 4 -6 10 -25 14 -25 6z"/>
<path d="M2380 4716 c0 -2 7 -9 15 -16 9 -7 15 -8 15 -2 0 5 -7 12 -15 16 -8
3 -15 4 -15 2z"/>
<path d="M6690 4661 c0 -6 -11 -16 -25 -21 -14 -5 -25 -14 -25 -20 0 -7 6 -8
18 -1 25 13 46 40 38 48 -3 3 -6 1 -6 -6z"/>
<path d="M2748 4653 c7 -3 16 -2 19 1 4 3 -2 6 -13 5 -11 0 -14 -3 -6 -6z"/>
<path d="M6514 4535 c-24 -18 -7 -19 26 0 16 9 19 14 9 15 -8 0 -24 -7 -35
-15z"/>
<path d="M8391 4474 c2 -6 56 -67 121 -135 64 -68 136 -147 160 -176 23 -28
45 -50 47 -47 6 6 -70 94 -165 194 -45 47 -101 105 -124 130 -23 25 -40 40
-39 34z"/>
<path d="M8121 4396 c2 -2 31 -20 64 -39 82 -48 177 -149 272 -292 98 -148
147 -236 184 -329 16 -39 28 -65 29 -59 0 20 -51 142 -94 223 -63 119 -195
308 -266 381 -58 59 -149 119 -181 119 -7 0 -10 -2 -8 -4z"/>
<path d="M8106 4359 c8 -17 31 -53 50 -79 39 -54 158 -283 167 -320 5 -21 25
-79 60 -170 30 -80 73 -233 101 -360 39 -172 55 -303 57 -442 1 -83 2 -89 11
-53 22 89 -32 494 -96 723 -56 196 -168 478 -237 594 -28 47 -110 138 -124
138 -3 0 2 -14 11 -31z"/>
<path d="M7742 4070 c0 -14 2 -19 5 -12 2 6 2 18 0 25 -3 6 -5 1 -5 -13z"/>
<path d="M8714 3918 c51 -51 112 -119 135 -150 58 -77 63 -74 9 4 -45 65 -210
238 -227 238 -5 0 32 -42 83 -92z"/>
<path d="M7732 3980 c0 -14 2 -19 5 -12 2 6 2 18 0 25 -3 6 -5 1 -5 -13z"/>
<path d="M4028 3983 c6 -2 18 -2 25 0 6 3 1 5 -13 5 -14 0 -19 -2 -12 -5z"/>
<path d="M4165 3980 l-30 -8 35 0 c19 0 44 3 55 8 18 8 18 9 -5 8 -14 0 -38
-4 -55 -8z"/>
<path d="M7721 3934 c0 -11 3 -14 6 -6 3 7 2 16 -1 19 -3 4 -6 -2 -5 -13z"/>
<path d="M7711 3894 c0 -11 3 -14 6 -6 3 7 2 16 -1 19 -3 4 -6 -2 -5 -13z"/>
<path d="M7701 3854 c0 -11 3 -14 6 -6 3 7 2 16 -1 19 -3 4 -6 -2 -5 -13z"/>
<path d="M8771 3725 c-1 -66 -2 -148 -3 -182 0 -35 1 -111 2 -170 3 -94 5
-101 10 -53 4 30 4 91 -1 135 -4 47 -3 113 3 160 7 54 8 104 1 155 l-10 75 -2
-120z"/>
<path d="M7676 3769 c-9 -28 -16 -53 -14 -55 2 -2 12 19 22 47 10 27 17 52 14
54 -2 2 -12 -19 -22 -46z"/>
<path d="M8701 3820 c0 -3 9 -39 20 -80 16 -62 18 -67 14 -28 -3 37 -32 128
-34 108z"/>
<path d="M8960 3780 c6 -11 13 -20 16 -20 2 0 0 9 -6 20 -6 11 -13 20 -16 20
-2 0 0 -9 6 -20z"/>
<path d="M7637 3665 c-24 -50 -20 -58 4 -12 11 22 19 41 17 43 -3 2 -12 -12
-21 -31z"/>
<path d="M8915 3676 c10 -14 19 -26 22 -26 7 0 -17 39 -28 46 -6 3 -3 -5 6
-20z"/>
<path d="M8671 3644 c0 -11 3 -14 6 -6 3 7 2 16 -1 19 -3 4 -6 -2 -5 -13z"/>
<path d="M8742 3640 c0 -14 2 -19 5 -12 2 6 2 18 0 25 -3 6 -5 1 -5 -13z"/>
<path d="M8940 3638 c1 -8 109 -212 110 -205 0 11 -99 207 -105 207 -3 0 -5
-1 -5 -2z"/>
<path d="M8271 3554 c0 -11 3 -14 6 -6 3 7 2 16 -1 19 -3 4 -6 -2 -5 -13z"/>
<path d="M7565 3519 c-4 -6 -5 -12 -2 -15 2 -3 7 2 10 11 7 17 1 20 -8 4z"/>
<path d="M4430 3342 c-55 -58 -132 -87 -260 -97 -124 -10 -224 10 -405 80 -11
4 0 -6 25 -23 35 -24 54 -49 88 -115 40 -76 109 -174 232 -330 24 -31 57 -62
72 -68 39 -16 226 -3 270 19 32 17 98 93 98 114 0 6 -13 -7 -29 -28 -15 -21
-40 -49 -53 -62 l-25 -23 -87 48 c-48 26 -141 84 -209 128 -147 96 -161 104
-122 70 17 -14 39 -34 50 -44 11 -9 50 -37 87 -61 36 -25 64 -49 61 -54 -4 -5
-1 -6 5 -2 6 4 34 -6 63 -22 32 -19 46 -32 37 -36 -7 -3 -4 -4 7 -1 11 2 31
-2 45 -10 l25 -13 -25 -6 c-91 -19 -187 -16 -174 5 3 5 -1 7 -8 4 -17 -6 -25
0 -77 63 -63 76 -100 135 -94 146 3 5 1 6 -4 3 -6 -4 -23 17 -38 46 -47 87
-86 169 -83 173 2 1 21 -1 43 -6 199 -42 416 3 520 109 22 24 33 41 25 40 -8
0 -35 -21 -60 -47z"/>
<path d="M5944 3275 c-40 -29 -45 -35 -26 -35 35 0 92 27 92 44 0 28 -17 25
-66 -9z"/>
<path d="M8762 3215 c0 -16 2 -22 5 -12 2 9 2 23 0 30 -3 6 -5 -1 -5 -18z"/>
<path d="M5610 3168 c-79 -21 -136 -30 -230 -34 -141 -6 -163 -10 -140 -24 27
-17 137 -10 247 15 118 27 243 64 243 71 0 6 -1 5 -120 -28z"/>
<path d="M8752 3155 c0 -16 2 -22 5 -12 2 9 2 23 0 30 -3 6 -5 -1 -5 -18z"/>
<path d="M3690 3080 c6 -11 13 -20 16 -20 2 0 0 9 -6 20 -6 11 -13 20 -16 20
-2 0 0 -9 6 -20z"/>
<path d="M9162 3060 c0 -14 2 -19 5 -12 2 6 2 18 0 25 -3 6 -5 1 -5 -13z"/>
<path d="M9163 2980 c0 -25 2 -35 4 -22 2 12 2 32 0 45 -2 12 -4 2 -4 -23z"/>
<path d="M4555 2959 c-4 -6 -5 -12 -2 -15 2 -3 7 2 10 11 7 17 1 20 -8 4z"/>
<path d="M2215 2879 c-113 -7 -281 -38 -488 -89 -374 -92 -732 -419 -847 -775
-30 -93 -61 -145 -113 -192 -52 -45 -123 -73 -207 -80 -131 -12 -283 78 -325
192 -24 66 -35 77 -35 35 1 -96 41 -190 110 -259 50 -50 222 -129 323 -148 70
-14 86 -20 82 -32 -31 -107 -41 -412 -16 -511 23 -92 80 -188 125 -212 13 -7
10 0 -10 18 -88 83 -134 282 -113 489 11 112 35 241 55 298 15 42 -1 41 -17 0
-9 -25 -11 -26 -97 -21 -79 5 -97 10 -193 56 -126 60 -172 106 -207 203 l-23
64 30 -35 c17 -19 30 -38 31 -42 0 -15 87 -66 145 -86 98 -34 189 -36 276 -8
40 13 78 22 84 20 6 -3 22 19 35 48 13 29 36 81 52 115 15 34 28 65 28 68 0 6
37 81 86 175 151 287 522 546 889 622 262 54 345 68 400 68 76 0 136 10 129
21 -6 10 -25 10 -189 -2z"/>
<path d="M4552 2851 c-6 -17 -9 -31 -6 -31 7 0 25 52 20 57 -2 2 -8 -10 -14
-26z"/>
<path d="M4288 2613 c7 -3 16 -2 19 1 4 3 -2 6 -13 5 -11 0 -14 -3 -6 -6z"/>
<path d="M4238 2603 c7 -3 16 -2 19 1 4 3 -2 6 -13 5 -11 0 -14 -3 -6 -6z"/>
<path d="M4400 2456 c0 -2 8 -10 18 -17 15 -13 16 -12 3 4 -13 16 -21 21 -21
13z"/>
<path d="M2413 2330 c-21 -11 -29 -21 -23 -29 4 -7 9 -9 11 -4 2 4 17 18 33
31 33 26 25 27 -21 2z"/>
<path d="M2484 2299 c0 -13 3 -15 13 -7 7 6 13 12 13 13 0 2 -6 5 -13 8 -7 3
-13 -3 -13 -14z"/>
<path d="M2527 2304 c6 -15 23 -19 23 -5 0 5 -7 11 -14 14 -10 4 -13 1 -9 -9z"/>
<path d="M2419 2278 c-5 -17 -4 -48 3 -48 4 0 8 4 8 9 0 5 3 16 6 25 3 9 1 16
-5 16 -6 0 -11 -1 -12 -2z"/>
<path d="M2633 2232 c-7 -12 -8 -24 -2 -33 14 -23 10 -30 -11 -19 -14 7 -20 7
-20 0 0 -5 7 -11 15 -11 24 -2 29 -4 44 -13 10 -7 10 -3 -2 15 -9 13 -17 33
-17 44 0 15 3 16 9 7 7 -11 9 -10 14 3 4 9 3 14 -2 10 -5 -3 -11 -1 -13 5 -2
6 -8 2 -15 -8z"/>
<path d="M2335 2199 c-4 -6 -4 -13 -1 -16 3 -4 6 -1 6 6 0 8 6 11 16 7 8 -3
12 -2 9 4 -8 13 -22 13 -30 -1z"/>
<path d="M2660 2190 c0 -5 5 -10 10 -10 6 0 10 5 10 10 0 6 -4 10 -10 10 -5 0
-10 -4 -10 -10z"/>
<path d="M2720 2131 c0 -6 4 -13 10 -16 6 -3 7 1 4 9 -7 18 -14 21 -14 7z"/>
<path d="M2610 2110 c0 -5 5 -10 10 -10 6 0 10 5 10 10 0 6 -4 10 -10 10 -5 0
-10 -4 -10 -10z"/>
<path d="M2580 2101 c0 -10 19 -25 25 -20 1 2 -3 10 -11 17 -8 7 -14 8 -14 3z"/>
<path d="M2740 2090 c-9 -6 -11 -10 -3 -10 7 0 10 -7 6 -17 -3 -10 -3 -15 1
-12 6 6 18 49 13 49 -1 0 -9 -5 -17 -10z"/>
<path d="M2763 2052 c4 -5 4 -17 1 -26 -6 -15 -8 -15 -21 1 -13 16 -13 16 -2
-6 11 -24 12 -24 25 -6 17 23 17 32 2 41 -6 4 -8 3 -5 -4z"/>
<path d="M2735 1969 c-4 -6 -5 -12 -2 -15 2 -3 7 2 10 11 7 17 1 20 -8 4z"/>
<path d="M1110 1909 c-12 -23 -20 -43 -18 -45 3 -2 14 17 26 41 27 56 20 60
-8 4z"/>
<path d="M2665 1910 c-4 -6 -11 -8 -16 -5 -5 3 -6 -1 -3 -10 4 -9 7 -15 8 -13
1 2 8 11 15 21 7 9 11 17 8 17 -3 0 -9 -5 -12 -10z"/>
<path d="M2696 1912 c-3 -5 1 -9 9 -9 8 0 12 4 9 9 -3 4 -7 8 -9 8 -2 0 -6 -4
-9 -8z"/>
<path d="M2370 1900 c-9 -6 -10 -10 -3 -10 6 0 15 5 18 10 8 12 4 12 -15 0z"/>
<path d="M1075 1839 c-4 -6 -5 -12 -2 -15 2 -3 7 2 10 11 7 17 1 20 -8 4z"/>
<path d="M2198 1793 c7 -3 16 -2 19 1 4 3 -2 6 -13 5 -11 0 -14 -3 -6 -6z"/>
<path d="M2155 1780 c3 -5 13 -10 21 -10 8 0 12 5 9 10 -3 6 -13 10 -21 10 -8
0 -12 -4 -9 -10z"/>
<path d="M2088 1773 c6 -2 18 -2 25 0 6 3 1 5 -13 5 -14 0 -19 -2 -12 -5z"/>
<path d="M2546 1751 c-4 -5 -2 -12 3 -15 5 -4 12 -2 15 3 4 5 2 12 -3 15 -5 4
-12 2 -15 -3z"/>
<path d="M1035 1729 c-4 -12 -23 -46 -41 -75 -19 -29 -34 -57 -34 -63 0 -5 -4
-11 -8 -13 -8 -3 -25 -34 -94 -168 -25 -50 -91 -285 -75 -270 3 3 19 48 37
100 36 110 130 297 145 290 6 -3 10 -81 11 -200 1 -214 16 -325 60 -434 43
-107 143 -221 229 -262 l30 -14 -25 17 c-48 35 -115 97 -138 127 -130 172
-169 509 -101 870 19 100 21 148 4 95z"/>
<path d="M2070 1675 c0 -9 6 -12 15 -9 8 4 15 10 15 15 0 5 -7 9 -15 9 -8 0
-15 -7 -15 -15z"/>
<path d="M2138 1663 c7 -3 16 -2 19 1 4 3 -2 6 -13 5 -11 0 -14 -3 -6 -6z"/>
<path d="M2268 1653 c7 -3 16 -2 19 1 4 3 -2 6 -13 5 -11 0 -14 -3 -6 -6z"/>
<path d="M1446 1608 c-52 -89 -126 -256 -147 -333 -29 -104 -33 -308 -7 -401
21 -76 57 -139 71 -125 6 6 4 15 -6 26 -9 8 -14 23 -11 33 5 14 4 15 -5 2 -5
-8 -13 -11 -17 -7 -4 3 -2 12 4 19 5 7 12 33 15 58 2 25 2 34 -1 20 -4 -24 -5
-24 -13 -5 -8 17 -9 16 -5 -5 3 -14 1 -31 -3 -39 -12 -19 -21 11 -24 78 -1 28
-5 51 -9 51 -13 0 -9 48 5 53 10 4 10 6 0 6 -15 1 -17 43 -3 57 5 5 10 39 11
74 2 81 8 122 18 115 5 -2 6 8 4 23 -4 22 -2 24 7 12 9 -12 10 -10 8 10 -2 20
56 153 134 303 18 35 -2 16 -26 -25z"/>
<path d="M2168 1643 c7 -3 16 -2 19 1 4 3 -2 6 -13 5 -11 0 -14 -3 -6 -6z"/>
<path d="M1411 1468 c-1 -10 -5 -18 -11 -18 -5 0 -10 -5 -10 -12 0 -8 6 -7 16
4 9 9 14 22 11 30 -4 9 -6 7 -6 -4z"/>
<path d="M1398 1398 c-6 -36 3 -118 13 -118 6 0 7 15 2 38 -4 20 -6 52 -5 70
2 37 -4 43 -10 10z"/>
<path d="M1371 1394 c0 -11 3 -14 6 -6 3 7 2 16 -1 19 -3 4 -6 -2 -5 -13z"/>
<path d="M1344 1276 c-3 -8 -4 -23 -2 -33 3 -11 6 -6 9 15 6 34 2 42 -7 18z"/>
<path d="M1841 1254 c0 -11 3 -14 6 -6 3 7 2 16 -1 19 -3 4 -6 -2 -5 -13z"/>
<path d="M1900 1249 c0 -5 5 -7 10 -4 6 3 10 8 10 11 0 2 -4 4 -10 4 -5 0 -10
-5 -10 -11z"/>
<path d="M1449 1222 c6 -12 16 -24 22 -28 8 -4 8 -1 0 14 -6 12 -16 24 -22 28
-8 4 -8 1 0 -14z"/>
<path d="M1410 1029 c0 -5 5 -7 10 -4 6 3 10 8 10 11 0 2 -4 4 -10 4 -5 0 -10
-5 -10 -11z"/>
<path d="M1410 969 c0 -8 -3 -25 -5 -39 -5 -22 -4 -23 5 -5 8 16 9 14 5 -15
-3 -26 -2 -31 5 -18 6 9 8 30 7 47 -4 32 -17 55 -17 30z"/>
<path d="M1311 944 c0 -11 3 -14 6 -6 3 7 2 16 -1 19 -3 4 -6 -2 -5 -13z"/>
<path d="M1372 920 c0 -14 2 -19 5 -12 2 6 2 18 0 25 -3 6 -5 1 -5 -13z"/>
<path d="M1351 844 c0 -11 3 -14 6 -6 3 7 2 16 -1 19 -3 4 -6 -2 -5 -13z"/>
<path d="M1420 806 c0 -2 7 -9 15 -16 13 -11 14 -10 9 4 -5 14 -24 23 -24 12z"/>
<path d="M890 791 c0 -9 30 -24 36 -18 2 1 -6 8 -16 15 -11 7 -20 8 -20 3z"/>
<path d="M1416 775 c4 -8 11 -15 16 -15 6 0 5 6 -2 15 -7 8 -14 15 -16 15 -2
0 -1 -7 2 -15z"/>
<path d="M1048 3 c6 -2 18 -2 25 0 6 3 1 5 -13 5 -14 0 -19 -2 -12 -5z"/>
</g>
</svg>
