<?xml version="1.0" standalone="no"?>
<!DOCTYPE svg PUBLIC "-//W3C//DTD SVG 20010904//EN"
 "http://www.w3.org/TR/2001/REC-SVG-20010904/DTD/svg10.dtd">
<svg version="1.0" xmlns="http://www.w3.org/2000/svg"
 width="750.000000pt" height="750.000000pt" viewBox="0 0 750.000000 750.000000"
 preserveAspectRatio="xMidYMid meet">
<metadata>
Created by potrace 1.14, written by Peter Selinger 2001-2017
</metadata>
<g transform="translate(0.000000,750.000000) scale(0.100000,-0.100000)"
fill="#000000" stroke="none">
<path d="M2735 7483 c-18 -14 -18 -15 -2 -9 10 3 27 6 38 6 10 0 19 5 19 10 0
15 -33 11 -55 -7z"/>
<path d="M3155 7490 c3 -5 14 -10 24 -10 25 0 100 -51 142 -96 113 -122 214
-309 226 -418 3 -28 10 -57 16 -63 5 -7 12 -81 15 -164 4 -134 7 -152 23 -156
10 -3 15 -11 12 -19 -3 -8 0 -14 6 -14 17 0 13 47 -4 54 -10 3 -15 19 -15 43
1 67 18 119 69 200 83 134 167 326 190 435 25 115 28 218 7 218 -10 0 -15 -27
-19 -107 -7 -121 -21 -182 -62 -263 l-27 -56 -67 8 c-159 19 -149 13 -202 106
-85 147 -154 228 -237 279 -53 31 -111 45 -97 23z m584 -446 c3 -4 0 -9 -6
-11 -7 -3 -13 -10 -13 -18 0 -7 -15 -42 -34 -78 -54 -106 -86 -126 -86 -54 0
23 -9 69 -20 101 -11 33 -20 60 -20 62 0 14 166 12 179 -2z"/>
<path d="M4500 7483 c-1 -46 -59 -165 -129 -263 -25 -36 -59 -85 -76 -109 -16
-25 -49 -64 -72 -88 -24 -24 -43 -44 -43 -46 0 -14 -239 -237 -287 -268 -79
-51 -116 -93 -142 -164 -27 -71 -27 -85 2 -57 29 30 191 143 242 170 70 36
107 44 240 49 143 6 222 -8 338 -61 31 -14 57 -22 57 -18 0 19 -153 93 -252
122 -69 20 -92 22 -205 17 -70 -3 -139 -9 -153 -13 -23 -7 -21 -3 15 37 67 74
145 140 157 133 6 -4 23 -8 37 -9 66 -6 213 -52 319 -101 40 -19 76 -34 80
-34 11 0 97 -46 243 -128 69 -39 139 -76 155 -82 16 -6 54 -24 85 -40 98 -50
184 -71 310 -77 100 -5 126 -3 185 15 93 28 155 96 153 164 l-2 33 -10 -38
c-6 -22 -27 -57 -47 -79 -28 -32 -48 -43 -105 -59 -166 -46 -369 -1 -570 124
-139 86 -397 220 -524 271 -110 45 -238 86 -265 86 -25 0 -19 13 25 55 50 49
149 186 185 257 28 56 74 182 74 205 0 7 -4 13 -10 13 -5 0 -10 -8 -10 -17z"/>
<path d="M2536 7360 c-55 -48 -60 -50 -116 -50 -92 0 -214 -60 -245 -120 -11
-22 -12 -35 -4 -59 16 -46 29 -38 29 18 0 45 3 53 33 75 19 15 41 26 50 26 10
0 17 5 17 10 0 6 9 10 20 10 11 0 20 4 20 9 0 4 33 11 73 14 39 3 79 8 89 12
14 6 105 105 95 105 -2 0 -30 -22 -61 -50z"/>
<path d="M2425 7270 c-78 -21 -90 -27 -88 -44 1 -12 -4 -15 -14 -12 -10 4 -13
2 -10 -8 3 -8 -5 -26 -19 -41 -58 -63 -84 -134 -57 -157 14 -11 15 -9 9 18 -5
23 -1 39 21 71 35 52 102 108 161 134 98 45 281 17 474 -72 59 -27 111 -49
117 -49 6 0 15 -9 21 -19 9 -17 5 -20 -43 -26 -49 -6 -191 -32 -301 -55 -26
-6 -62 -17 -80 -24 -17 -8 -60 -24 -96 -34 -90 -27 -248 -104 -344 -168 -311
-205 -523 -414 -718 -709 -66 -100 -204 -282 -268 -355 -103 -118 -265 -211
-406 -233 -151 -24 -326 17 -404 96 -20 19 -28 24 -22 12 12 -24 78 -86 110
-102 13 -7 70 -19 128 -28 310 -46 507 53 747 375 31 41 90 120 132 175 42 55
97 131 121 168 72 111 388 435 480 493 16 10 46 31 66 46 47 36 365 200 438
226 30 11 81 25 113 32 31 7 57 17 57 21 0 5 10 8 23 8 12 -1 44 4 70 10 82
19 226 31 254 20 50 -19 190 -138 259 -221 116 -138 116 -138 38 -109 -27 10
-69 21 -94 24 -42 6 -40 4 45 -37 50 -24 102 -55 115 -70 14 -14 30 -26 37
-26 22 0 26 -23 8 -37 -18 -13 -18 -13 1 -28 10 -8 35 -17 54 -21 19 -3 52
-20 74 -37 21 -16 37 -24 34 -16 -2 8 -24 29 -48 47 -46 35 -73 70 -134 172
-53 88 -185 239 -282 321 -92 78 -263 174 -380 212 -185 61 -210 67 -290 66
-43 -1 -92 -5 -109 -9z"/>
<path d="M2203 7066 c0 -18 3 -24 9 -18 7 7 7 16 0 28 -8 14 -9 13 -9 -10z"/>
<path d="M5714 6753 c14 -21 26 -47 26 -58 0 -16 3 -15 15 9 18 33 10 48 -38
72 l-29 15 26 -38z"/>
<path d="M5790 6691 c0 -5 5 -13 10 -16 6 -3 10 -2 10 4 0 5 -4 13 -10 16 -5
3 -10 2 -10 -4z"/>
<path d="M5815 6638 c4 -13 9 -40 12 -60 3 -21 9 -38 14 -38 14 0 11 44 -6 84
-17 39 -32 50 -20 14z"/>
<path d="M4704 6445 c11 -8 24 -15 28 -15 12 0 207 -132 243 -165 17 -14 62
-52 100 -82 39 -31 75 -61 80 -67 15 -16 56 -38 62 -33 2 3 -44 49 -104 102
-150 135 -360 275 -413 274 -11 0 -10 -3 4 -14z"/>
<path d="M3415 6440 c-4 -6 17 -10 57 -10 55 -1 68 -5 103 -31 l40 -31 -70 5
c-38 3 -88 1 -110 -3 -35 -7 -32 -8 32 -9 75 -1 162 -16 201 -34 16 -8 28 -7
46 2 13 8 29 11 34 7 6 -3 13 -2 17 4 3 5 -1 10 -9 10 -8 0 -29 13 -46 29 -18
16 -44 34 -58 41 -15 7 -35 16 -44 21 -24 12 -185 11 -193 -1z"/>
<path d="M5831 6439 c-3 -37 -57 -126 -105 -173 -29 -28 -77 -62 -107 -75 -29
-13 -62 -27 -71 -32 -10 -5 -32 -9 -50 -9 -64 0 -66 -14 -12 -64 88 -78 170
-196 250 -356 21 -41 41 -77 44 -80 4 -3 21 -41 39 -85 27 -68 38 -84 68 -100
41 -23 155 -27 187 -9 15 9 2 11 -60 11 -66 -1 -87 3 -122 23 -23 13 -42 31
-42 41 0 56 -195 436 -285 553 l-35 46 27 10 c111 40 162 73 213 136 37 47 74
136 67 163 -4 14 -5 14 -6 0z"/>
<path d="M3365 6420 c-3 -5 3 -10 14 -10 12 0 21 5 21 10 0 6 -6 10 -14 10 -8
0 -18 -4 -21 -10z"/>
<path d="M3930 6383 c-39 -13 -103 -49 -107 -61 -3 -7 0 -19 6 -25 9 -9 18 -4
38 17 14 16 49 39 77 52 39 17 45 23 26 23 -14 0 -32 -3 -40 -6z"/>
<path d="M3353 6353 c9 -2 23 -2 30 0 6 3 -1 5 -18 5 -16 0 -22 -2 -12 -5z"/>
<path d="M3288 6333 c7 -3 16 -2 19 1 4 3 -2 6 -13 5 -11 0 -14 -3 -6 -6z"/>
<path d="M3220 6308 c-51 -21 -66 -27 -90 -32 -14 -3 -38 -17 -55 -32 -25 -22
-26 -24 -5 -12 14 8 57 27 95 41 70 27 109 47 90 46 -5 0 -21 -5 -35 -11z"/>
<path d="M5090 6260 c0 -5 7 -10 15 -10 8 0 15 -4 15 -9 0 -24 116 -73 208
-88 50 -8 38 11 -16 24 -26 6 -71 25 -100 42 -29 17 -62 31 -72 31 -11 0 -20
5 -20 10 0 6 -7 10 -15 10 -8 0 -15 -4 -15 -10z"/>
<path d="M3000 6195 c-11 -13 -10 -14 4 -9 9 3 16 10 16 15 0 13 -6 11 -20 -6z"/>
<path d="M2180 6130 c0 -5 4 -10 9 -10 6 0 13 5 16 10 3 6 -1 10 -9 10 -9 0
-16 -4 -16 -10z"/>
<path d="M2036 6008 c-119 -120 -156 -161 -196 -218 -13 -19 -54 -72 -90 -117
-82 -103 -156 -210 -204 -293 -20 -36 -72 -121 -116 -190 -43 -69 -108 -172
-144 -230 -67 -110 -126 -178 -189 -220 -20 -14 -35 -30 -33 -36 3 -6 -8 -18
-22 -25 -15 -7 -40 -24 -56 -36 -47 -38 -186 -100 -273 -122 -111 -29 -257
-29 -348 0 -55 17 -78 31 -121 73 -65 65 -82 116 -60 171 14 34 14 36 -2 33
-47 -9 -69 -170 -38 -286 40 -148 189 -327 351 -419 117 -66 145 -77 250 -98
85 -17 139 -17 268 1 80 11 51 -32 -58 -88 -91 -46 -133 -59 -216 -65 -81 -5
-118 6 -166 50 -26 23 -38 18 -28 -12 22 -71 187 -174 299 -187 61 -7 144 9
178 35 13 10 31 21 41 24 15 6 16 4 6 -15 -7 -13 -34 -46 -61 -74 -42 -44 -54
-52 -86 -52 -20 0 -54 9 -74 19 -24 12 -38 15 -38 8 0 -17 40 -79 51 -79 26 0
2 -34 -50 -69 -87 -59 -167 -83 -283 -85 -54 0 -98 -4 -98 -8 0 -3 21 -25 46
-47 146 -128 377 -150 583 -55 61 28 85 34 142 34 40 0 69 -4 69 -10 0 -6 -13
-39 -29 -75 -33 -71 -107 -157 -161 -185 l-35 -19 45 -2 c58 -2 67 -1 115 12
72 20 119 40 166 70 50 32 139 42 139 16 0 -23 -69 -131 -103 -160 -46 -40
-127 -82 -151 -79 -18 2 -17 -1 8 -20 67 -52 187 -81 241 -58 14 6 1 9 -43 9
-62 1 -162 33 -162 52 0 5 20 18 44 29 24 12 54 32 66 46 13 13 29 24 35 24 6
0 25 26 40 58 16 31 33 60 38 63 4 3 7 10 6 15 -1 5 3 20 9 34 6 14 11 22 11
18 1 -4 13 4 27 17 15 14 33 25 41 25 7 0 16 7 19 15 5 13 9 13 22 3 13 -11
15 -10 9 5 -4 11 -2 17 8 17 9 0 15 10 15 26 0 14 5 34 10 45 7 13 7 19 0 19
-5 0 -10 -4 -10 -10 0 -29 -176 -160 -215 -160 -19 0 -18 2 5 20 36 28 20 33
-21 6 -18 -12 -59 -40 -90 -60 -54 -36 -174 -75 -229 -76 -22 0 -20 4 27 45
67 59 118 158 128 247 9 91 11 95 70 138 29 21 101 85 159 140 100 95 109 101
139 95 58 -12 66 -16 87 -46 51 -71 166 -119 285 -119 33 0 111 11 173 23 122
25 132 21 90 -29 -42 -50 -73 -74 -125 -101 -29 -14 -53 -28 -53 -29 0 -2 13
-10 30 -19 32 -16 160 -20 195 -5 13 6 -12 9 -72 9 -55 1 -93 5 -93 11 0 6 4
10 10 10 15 0 143 124 188 183 35 45 66 127 48 127 -3 0 -23 -16 -45 -35 -49
-45 -127 -79 -230 -101 -72 -16 -91 -16 -164 -4 -92 14 -181 51 -202 83 -19
30 -30 77 -17 77 5 0 26 -7 45 -15 39 -16 139 -19 172 -5 13 6 -13 9 -77 9
-89 1 -99 3 -127 27 l-31 26 -10 -27 c-5 -14 -10 -31 -10 -37 0 -5 -7 -7 -16
-4 -9 4 -35 11 -58 17 -23 5 -59 26 -81 45 l-40 34 40 -1 c53 -1 134 11 141
22 3 5 12 9 21 9 17 0 135 77 183 120 138 123 191 186 230 273 24 52 26 85 2
37 -28 -58 -99 -146 -190 -239 -48 -48 -94 -92 -103 -99 -29 -22 -3 103 65
312 36 110 66 204 66 209 0 18 -27 -13 -45 -53 -30 -67 -44 -50 -25 32 5 24
23 115 40 203 56 291 156 545 380 964 27 52 50 103 49 115 0 20 -1 19 -10 -3
-5 -13 -12 -22 -14 -19 -3 3 -1 17 4 32 6 14 8 33 5 41 -4 8 -1 15 5 15 6 0
11 7 11 16 0 14 -3 14 -15 4 -8 -7 -15 -17 -15 -22 0 -12 -19 -55 -71 -163
-21 -44 -47 -101 -58 -127 -23 -55 -34 -63 -20 -16 5 18 9 51 9 74 0 22 7 49
15 60 17 22 20 54 5 54 -15 0 -12 48 6 105 9 28 20 73 24 100 4 28 10 58 15
68 11 25 -10 21 -23 -5 l-11 -23 0 25 c-1 20 -3 22 -11 10 -8 -11 -9 -7 -4 14
6 25 4 28 -10 23 -11 -4 -16 -1 -16 11 0 9 -11 26 -25 36 -28 21 -33 46 -10
46 8 0 15 -4 15 -10 0 -5 8 -10 18 -10 13 0 10 6 -13 25 -16 13 -34 24 -38 25
-5 0 -59 -51 -121 -112z m324 -318 c0 -5 -4 -10 -10 -10 -5 0 -10 5 -10 10 0
6 5 10 10 10 6 0 10 -4 10 -10z m-30 -55 c-6 -15 -13 -25 -16 -23 -2 3 1 17 7
32 16 34 23 27 9 -9z"/>
<path d="M2417 5873 c-4 -3 -7 -11 -7 -17 0 -6 5 -5 12 2 6 6 9 14 7 17 -3 3
-9 2 -12 -2z"/>
<path d="M2435 5807 c-12 -9 -14 -16 -7 -21 6 -3 16 3 22 14 13 24 10 25 -15
7z"/>
<path d="M319 5650 c-3 -38 4 -85 12 -88 5 -2 9 -15 9 -28 0 -13 5 -24 11 -24
7 0 8 11 4 30 -4 17 -8 46 -10 66 -2 36 -24 72 -26 44z"/>
<path d="M6340 5593 c1 -5 9 -23 19 -42 16 -31 17 -39 4 -80 -7 -25 -24 -62
-37 -82 -25 -38 -115 -103 -167 -121 -65 -23 -209 13 -217 55 -3 14 4 17 35
17 60 1 97 29 137 107 19 37 20 43 6 43 -5 0 -10 -9 -10 -20 0 -11 -19 -40
-42 -64 -36 -36 -52 -45 -93 -52 -37 -5 -56 -3 -77 9 -40 23 -35 7 15 -43 110
-111 262 -114 385 -6 34 30 71 99 86 160 6 23 9 27 17 15 12 -19 12 -166 -1
-174 -5 -3 -10 -14 -10 -23 0 -10 -23 -46 -52 -81 -47 -59 -49 -63 -25 -57 14
3 39 11 54 18 22 9 24 12 11 15 -23 6 -23 3 9 65 15 29 30 61 35 70 4 10 8 51
8 93 0 76 -13 113 -57 164 -18 21 -33 28 -33 14z"/>
<path d="M390 5454 c0 -2 14 -40 30 -83 37 -95 139 -226 220 -282 82 -56 175
-83 269 -76 42 3 86 9 99 12 29 9 29 -7 1 -70 -47 -106 -133 -208 -214 -253
-19 -11 -19 -11 -1 -12 65 -1 189 130 274 289 35 66 77 180 68 188 -1 1 -20
-21 -42 -50 -39 -51 -42 -53 -124 -71 -150 -34 -259 -5 -359 95 -83 84 -135
157 -167 236 -16 40 -35 75 -41 77 -7 3 -13 3 -13 0z"/>
<path d="M4764 5250 c43 -183 66 -378 59 -500 -18 -318 -30 -400 -83 -560 -21
-63 -45 -140 -54 -170 -8 -30 -33 -92 -56 -138 -22 -45 -40 -92 -40 -103 0
-11 28 -70 63 -132 62 -111 129 -192 177 -214 23 -11 20 -12 -30 -12 -69 -1
-191 36 -183 56 3 9 0 11 -10 7 -9 -3 -41 13 -77 38 -34 24 -81 56 -104 72
-22 15 -67 55 -100 87 -32 32 -60 59 -62 59 -14 0 3 -27 50 -80 30 -34 68 -85
84 -113 16 -29 37 -59 46 -66 19 -16 21 -31 5 -31 -7 0 -53 26 -102 58 -100
63 -120 73 -156 79 -33 6 -56 19 -119 67 -29 23 -68 51 -85 64 -58 42 -110 88
-159 142 -207 223 -553 791 -607 998 -7 23 -14 42 -16 42 -3 0 -4 -48 -4 -107
1 -60 -4 -146 -10 -193 -26 -176 -118 -566 -141 -595 -5 -6 -18 -37 -30 -70
-32 -90 -33 -92 -92 -210 -89 -176 -128 -235 -213 -321 -72 -73 -143 -119
-225 -148 -8 -3 3 -4 25 -3 22 2 46 6 53 11 7 4 12 2 12 -8 0 -8 4 -16 9 -18
4 -1 12 -14 16 -27 5 -16 4 -21 -4 -17 -18 11 6 -44 37 -84 70 -92 273 -300
292 -300 7 0 -30 40 -81 89 -127 119 -202 225 -224 315 l-17 68 28 24 c45 36
61 38 94 10 16 -13 40 -28 52 -32 13 -4 40 -20 61 -36 46 -37 47 -32 2 16 -19
21 -35 42 -35 47 0 5 -11 27 -25 49 -14 22 -25 44 -25 50 0 14 62 69 78 70 6
0 12 -7 12 -16 0 -40 71 -163 117 -204 58 -52 136 -90 183 -90 l35 0 -43 20
c-48 22 -64 51 -49 91 8 21 7 30 -6 44 -28 28 -19 34 20 14 59 -30 109 -25
149 15 26 26 34 30 34 17 0 -10 11 -28 25 -41 14 -14 25 -35 25 -50 0 -32 -52
-84 -95 -96 -27 -7 -28 -8 -7 -12 28 -4 80 27 126 78 40 45 46 75 16 83 -24 6
-25 16 -6 43 12 15 17 17 27 7 23 -23 38 -14 50 29 10 38 9 149 -2 188 -8 29
112 23 255 -12 70 -17 58 0 -58 82 -54 38 -68 60 -39 60 11 0 27 6 37 13 16
12 8 15 -67 27 -74 11 -103 11 -228 -5 -141 -17 -233 -32 -354 -59 -33 -7 -62
-12 -64 -10 -1 1 13 29 32 61 20 32 41 78 47 103 12 45 18 61 59 152 11 26 21
55 21 63 0 8 4 23 9 33 12 24 41 108 57 167 26 98 72 291 79 332 9 56 18 60
34 15 11 -31 51 -104 114 -207 200 -328 493 -655 731 -817 16 -11 -33 -105
-97 -186 -71 -89 -90 -109 -114 -116 -10 -3 16 -4 57 -3 66 2 85 8 164 47 84
42 119 71 104 85 -8 9 -46 -12 -72 -39 -12 -12 -46 -30 -76 -39 -118 -35 -134
-33 -84 14 30 27 114 142 114 155 0 5 8 19 18 32 17 22 21 23 65 11 34 -8 56
-22 77 -48 17 -20 26 -37 20 -39 -5 -2 -10 -10 -10 -17 0 -8 -32 -46 -71 -85
-39 -38 -68 -70 -64 -70 19 0 106 74 145 124 25 31 48 56 52 56 5 0 25 -9 45
-20 21 -11 45 -20 55 -20 9 0 19 -4 22 -9 7 -11 46 -22 46 -12 0 3 -10 17 -23
31 -12 14 -33 40 -47 59 -30 43 -15 39 71 -20 99 -67 163 -91 256 -97 94 -5
141 2 169 24 18 15 17 15 -14 10 -40 -7 -75 10 -121 58 -28 29 -32 38 -22 50
7 8 25 17 39 19 26 4 25 4 -4 6 -47 2 -71 35 -71 99 -1 49 0 52 16 38 27 -25
59 -19 92 16 l29 32 0 -26 c0 -18 8 -31 21 -39 17 -9 20 -17 15 -42 -3 -18
-16 -40 -27 -49 -12 -10 -18 -18 -14 -18 14 0 63 40 80 66 16 25 16 27 -5 46
-16 15 -18 23 -10 34 7 7 21 12 33 11 27 -3 46 57 54 174 5 82 5 87 -17 102
l-23 16 29 12 c59 23 99 28 148 17 l49 -10 -6 -126 -6 -125 23 34 c21 32 44
86 81 191 13 34 23 47 41 51 14 2 26 1 29 -2 2 -4 -8 -50 -22 -102 -13 -52
-29 -113 -34 -137 -5 -24 -16 -67 -24 -95 -9 -29 -20 -90 -25 -137 -5 -47 -19
-159 -30 -250 -24 -200 -24 -192 -2 -188 12 2 16 11 14 31 -2 15 4 67 12 115
9 48 21 114 26 147 20 124 22 135 30 140 9 6 80 -62 80 -76 0 -5 -11 -34 -25
-65 -14 -32 -24 -59 -21 -61 2 -2 26 14 54 37 52 40 82 44 82 10 0 -30 -77
-135 -146 -199 -35 -34 -62 -61 -59 -61 4 0 27 14 51 31 59 40 141 141 181
221 41 84 99 268 84 268 -4 0 -23 -28 -43 -62 -32 -56 -125 -164 -134 -155 -2
1 4 30 14 62 25 87 22 326 -6 460 -18 86 -18 102 -6 111 21 16 17 24 -16 35
-16 6 -30 17 -30 25 0 25 -63 209 -68 196 -7 -23 -30 -12 -53 26 -43 71 -188
257 -236 303 -26 25 -75 74 -107 109 l-59 64 -9 96 c-5 52 -15 109 -22 125 -8
17 -22 59 -31 95 -16 63 -44 126 -31 70z m232 -660 c-41 -3 -78 -9 -83 -14 -4
-4 31 -5 78 -1 104 9 93 17 215 -167 128 -193 137 -226 55 -207 -20 5 -47 12
-61 15 -46 10 -386 -95 -444 -138 -24 -17 -28 -18 -23 -4 24 62 87 315 87 349
0 13 20 27 65 48 35 16 73 29 84 29 11 0 23 5 26 10 3 6 15 10 26 10 10 0 19
5 19 10 0 6 -9 10 -20 10 -11 0 -20 -4 -20 -10 0 -5 -8 -10 -17 -10 -10 0 -45
-9 -77 -20 -33 -11 -61 -20 -62 -20 -4 0 4 164 12 259 l6 64 104 -104 105
-104 -75 -5z m431 -875 c-3 -55 -12 -115 -20 -133 l-14 -34 -31 32 c-18 17
-32 40 -32 50 0 35 31 154 58 225 l26 70 9 -55 c5 -30 6 -100 4 -155z m-679
138 c11 -21 1 -53 -22 -72 -13 -11 -19 -11 -31 -1 -21 17 -19 40 7 67 26 28
34 29 46 6z m778 -357 c-12 -32 -21 -43 -32 -39 -18 7 -12 24 19 63 30 37 33
30 13 -24z m-2421 3 c12 -18 -43 -89 -68 -89 -45 0 -60 37 -31 78 11 16 25 22
54 22 21 0 42 -5 45 -11z"/>
<path d="M4865 4559 c-12 -18 3 -22 20 -5 14 14 14 16 1 16 -8 0 -18 -5 -21
-11z"/>
<path d="M6417 5216 c-10 -8 -15 -20 -11 -29 9 -24 -67 -128 -128 -173 -29
-22 -78 -49 -108 -61 -30 -11 -70 -26 -87 -33 -31 -12 -47 -11 -85 5 -10 4
-18 3 -18 -3 0 -14 132 -100 206 -133 72 -33 178 -59 237 -59 58 1 128 18 149
37 53 48 14 -66 -49 -143 -28 -34 -62 -62 -97 -79 -49 -24 -58 -25 -96 -15
-46 12 -164 85 -195 120 -27 30 -81 68 -69 48 23 -37 210 -177 279 -207 17 -7
38 -17 47 -22 10 -5 48 -9 85 -9 l67 0 -38 -39 c-44 -45 -112 -77 -198 -95
-115 -23 -268 13 -305 72 -9 15 -31 45 -48 67 -18 22 -39 54 -48 70 -9 17 -16
23 -17 15 0 -8 9 -28 21 -45 70 -104 160 -327 228 -565 65 -231 74 -473 25
-694 -38 -169 -146 -418 -235 -537 -60 -81 -179 -194 -238 -228 l-43 -23 25
39 c83 131 127 275 147 478 14 139 18 452 6 570 l-8 90 -17 -55 c-33 -104
-133 -262 -214 -337 -107 -98 -312 -161 -387 -118 -37 21 -46 18 -22 -8 45
-48 13 -200 -83 -402 -45 -95 -108 -191 -252 -385 -22 -30 -22 -31 -2 -9 250
275 350 452 379 672 l13 97 42 0 c110 0 219 40 296 108 l47 42 37 -58 c88
-136 127 -217 132 -269 14 -142 -167 -513 -249 -513 -15 0 -19 -3 -12 -10 28
-28 200 66 293 162 33 33 64 57 69 54 5 -3 15 -39 21 -81 7 -41 15 -75 17 -75
8 0 -6 109 -18 148 -7 25 -7 37 4 51 216 297 264 406 308 713 17 113 8 319
-19 458 -24 121 -53 219 -110 375 -22 61 -41 114 -41 118 0 4 10 3 21 -4 12
-6 42 -14 67 -18 43 -6 49 -11 124 -106 185 -237 260 -356 319 -510 12 -33 29
-69 36 -81 7 -12 26 -59 42 -105 16 -46 30 -76 30 -66 1 28 -47 166 -76 217
-13 25 -36 75 -49 112 -14 37 -44 98 -67 135 -64 103 -218 324 -249 358 -25
27 -26 31 -10 37 9 4 38 7 64 7 69 1 155 37 209 88 40 37 119 148 119 167 0 8
-34 -10 -52 -27 -29 -28 -158 -50 -158 -27 0 6 4 10 9 10 4 0 29 18 55 41 42
37 112 140 144 214 33 75 32 173 -1 103 -40 -84 -82 -103 -210 -95 -51 3 -119
13 -152 21 -72 20 -209 87 -205 101 1 6 28 17 59 25 64 18 157 68 208 113 36
32 95 118 105 152 3 11 9 28 13 38 8 20 -3 22 -28 3z m-609 -1996 c-2 -119 -8
-221 -12 -228 -4 -7 -26 25 -53 79 -26 49 -55 98 -64 108 -9 9 -23 30 -32 46
-14 28 -14 31 23 75 47 56 104 139 114 165 20 49 28 -35 24 -245z"/>
<path d="M3173 5120 c0 -30 2 -43 4 -27 2 15 2 39 0 55 -2 15 -4 2 -4 -28z"/>
<path d="M685 4681 l-50 -7 65 -7 c157 -18 224 -19 264 -2 44 18 44 31 0 14
-38 -15 -182 -15 -197 0 -6 6 -16 10 -21 9 -6 0 -33 -4 -61 -7z"/>
<path d="M5267 4487 c3 -21 11 -57 19 -80 11 -36 13 -38 13 -14 1 15 -3 35 -8
45 -5 9 -14 33 -20 52 l-10 35 6 -38z"/>
<path d="M3158 4133 c7 -3 16 -2 19 1 4 3 -2 6 -13 5 -11 0 -14 -3 -6 -6z"/>
<path d="M2831 3883 c-2 -36 -39 -111 -85 -172 -85 -111 -282 -265 -362 -283
-18 -5 -18 -5 0 -13 11 -5 21 -3 25 4 4 7 34 23 67 36 l59 24 8 -32 c4 -18 12
-41 17 -52 5 -11 10 -26 12 -34 5 -16 64 43 107 106 66 98 173 386 158 425 -3
7 -6 3 -6 -9z m-231 -398 c0 -8 5 -15 10 -15 13 0 13 -36 -1 -61 -17 -32 -39
-5 -39 47 0 32 4 44 15 44 8 0 15 -7 15 -15z"/>
<path d="M1766 3629 c-2 -8 -7 -41 -10 -74 -3 -33 -12 -103 -21 -155 -9 -60
-14 -154 -13 -258 1 -188 0 -192 -90 -251 -29 -19 -50 -36 -48 -38 9 -9 85 37
109 67 14 16 28 27 30 23 3 -5 8 -42 11 -83 8 -87 61 -418 81 -504 8 -33 12
-63 10 -66 -2 -4 -55 -10 -117 -13 -106 -6 -220 -23 -313 -46 -22 -5 -78 -19
-125 -31 -101 -25 -242 -99 -315 -166 -28 -25 -66 -60 -85 -78 -94 -86 -193
-241 -231 -361 -12 -38 -25 -72 -28 -75 -4 -3 -14 -17 -24 -33 -26 -41 -87
-76 -158 -91 -48 -10 -59 -16 -45 -22 12 -4 44 0 80 10 34 10 72 19 84 20 26
3 62 60 96 151 10 28 42 95 69 150 45 89 64 113 166 216 120 120 182 164 312
219 132 56 378 113 545 125 l91 7 16 -43 c9 -24 35 -100 58 -169 22 -69 47
-137 55 -152 11 -21 11 -28 2 -28 -6 0 -3 -7 8 -15 12 -9 14 -14 6 -15 -7 0
-10 -4 -7 -10 9 -15 -57 0 -77 17 -11 10 -18 11 -23 3 -4 -6 -23 -21 -43 -34
-65 -42 -126 -109 -181 -201 -73 -122 -86 -145 -98 -180 -6 -16 -23 -61 -37
-100 -14 -38 -26 -79 -25 -90 1 -17 3 -16 12 6 l10 27 121 -1 c122 0 200 14
268 48 17 8 34 13 36 10 3 -3 -8 -24 -25 -48 -16 -23 -46 -71 -67 -106 -51
-87 -113 -159 -145 -166 -14 -3 -66 -12 -116 -20 -128 -21 -161 -29 -245 -65
-92 -38 -100 -45 -143 -128 -59 -114 -71 -132 -90 -132 -17 0 -18 6 -12 63 4
34 14 87 22 117 15 55 128 289 166 345 27 39 79 95 89 95 4 0 8 -33 8 -72 0
-51 3 -68 10 -58 5 8 10 47 10 86 0 134 65 324 160 469 65 99 67 103 35 75
-43 -39 -140 -190 -159 -247 -21 -63 -30 -69 -21 -13 8 48 2 51 -19 10 -8 -17
-10 -28 -5 -25 5 4 9 2 9 -4 0 -5 -10 -11 -22 -13 -15 -2 -23 -9 -22 -20 1
-10 -3 -16 -9 -15 -6 1 -26 -20 -44 -48 -18 -27 -45 -68 -61 -90 -16 -22 -37
-60 -47 -85 -11 -25 -22 -47 -25 -50 -3 -3 -11 -18 -19 -35 -7 -16 -17 -37
-21 -45 -4 -8 -12 -46 -19 -85 -7 -38 -17 -95 -23 -125 -6 -30 -13 -70 -15
-88 -3 -18 -11 -32 -19 -32 -8 0 -14 -6 -15 -12 -3 -39 4 -94 17 -123 13 -31
12 -37 -9 -74 -49 -87 -111 -171 -126 -171 -9 0 -56 -20 -106 -44 -49 -25
-117 -54 -150 -66 -140 -50 -205 -92 -233 -150 -18 -40 -52 -130 -52 -140 0
-20 133 -10 205 15 47 17 90 25 130 24 l60 -1 -34 -14 c-19 -9 -44 -13 -55
-10 -12 3 -30 -2 -40 -10 -17 -12 390 -14 3172 -14 l3193 0 -12 22 c-7 13 -35
57 -62 98 l-51 75 4 140 c12 457 0 514 -144 692 -51 63 -78 87 -121 109 -51
24 -62 26 -133 21 -151 -13 -228 -27 -317 -58 -135 -46 -133 -47 -178 39 -22
42 -42 99 -48 133 -19 121 -86 222 -155 235 -79 15 -422 -30 -669 -86 -147
-34 -154 -35 -173 -13 -20 23 -98 83 -129 100 -12 7 -40 16 -63 19 -36 6 -40
9 -41 38 -1 17 -4 78 -8 136 l-6 105 -50 25 c-38 18 -62 24 -107 22 -78 -3
-76 11 10 102 99 106 195 236 173 236 -6 0 -11 -4 -11 -9 0 -15 -213 -232
-255 -260 -37 -24 -48 -26 -150 -26 -93 0 -124 4 -200 29 -187 59 -332 117
-551 221 -80 37 -93 41 -109 29 -18 -13 -18 -14 -1 -14 10 0 30 -8 44 -18 15
-10 38 -23 52 -28 43 -19 134 -63 160 -78 14 -8 52 -26 85 -41 33 -15 68 -31
77 -36 10 -5 23 -9 30 -9 11 0 119 -42 186 -73 12 -6 22 -15 22 -21 1 -12 65
-56 82 -56 6 0 26 -11 44 -25 18 -14 45 -25 60 -25 41 0 17 -15 -46 -29 -38
-9 -114 -11 -250 -8 -191 5 -216 7 -350 27 -36 5 -121 17 -190 26 -117 16
-346 80 -377 105 -6 6 -13 45 -15 87 -2 42 -6 84 -8 92 -4 11 2 14 20 13 24
-2 23 -1 -5 12 -48 22 -55 19 -44 -17 5 -18 9 -49 9 -69 0 -33 -3 -37 -55 -58
-87 -36 -109 -79 -81 -156 5 -12 -5 -6 -27 17 -18 21 -39 56 -46 78 -6 22 -25
69 -41 106 -36 80 -37 88 -5 121 13 15 29 39 36 55 l11 27 39 -19 c58 -30 60
-24 4 14 -28 19 -89 67 -136 107 -131 114 -120 107 -113 68 21 -126 100 -359
122 -359 7 0 12 -6 9 -12 -6 -19 100 -224 126 -245 13 -10 33 -34 46 -53 67
-98 268 -252 386 -296 18 -7 17 -8 -7 -12 -50 -6 -191 52 -274 115 -63 47
-194 166 -194 175 0 12 -42 79 -47 74 -19 -19 123 -206 279 -368 143 -149 233
-208 317 -208 l36 -1 -29 -23 c-64 -53 -150 -58 -294 -20 -254 69 -336 120
-610 382 -85 81 -159 149 -165 151 -20 7 31 -54 97 -118 37 -35 65 -66 62 -68
-3 -3 -22 1 -43 10 -209 83 -283 161 -416 437 -82 170 -133 316 -173 501 -9
41 -22 103 -30 139 -46 206 -69 714 -45 964 10 107 9 153 -3 115z m940 -1371
c-2 -13 3 -30 11 -39 7 -9 13 -23 11 -30 -2 -8 4 -13 15 -13 10 1 17 -5 17
-17 0 -11 -7 -19 -16 -19 -8 0 -13 4 -9 9 3 6 -1 13 -9 18 -21 12 -47 96 -33
105 17 11 17 10 13 -14z m40 -23 c9 -14 22 -25 29 -25 19 0 26 -27 9 -34 -8
-3 -14 -1 -14 4 0 6 -13 24 -30 42 -33 34 -35 38 -20 38 5 0 17 -11 26 -25z
m-846 -411 c0 -8 -4 -12 -10 -9 -5 3 -10 13 -10 21 0 8 5 12 10 9 6 -3 10 -13
10 -21z m-25 -24 c3 -5 1 -10 -4 -10 -6 0 -11 5 -11 10 0 6 2 10 4 10 3 0 8
-4 11 -10z m-62 -22 c-4 -19 -103 -110 -103 -95 0 4 102 115 106 117 1 0 -1
-10 -3 -22z m157 0 c0 -19 -81 -124 -148 -192 -35 -36 -80 -70 -117 -87 -68
-32 -125 -47 -125 -32 0 22 63 95 127 148 54 45 248 175 260 175 2 0 3 -6 3
-12z m90 -49 c0 -4 -5 -11 -10 -14 -14 -9 7 -35 27 -35 10 0 12 -6 8 -19 -3
-11 0 -23 6 -27 8 -5 10 -2 5 7 -4 8 0 5 8 -5 9 -11 16 -24 16 -29 0 -5 7 -7
15 -3 25 9 17 -6 -27 -49 -24 -23 -56 -59 -73 -80 -66 -84 -80 -95 -133 -108
-29 -7 -49 -17 -45 -21 5 -4 -1 -7 -12 -6 -11 1 -31 2 -45 1 -21 -1 -22 -3
-10 -12 11 -8 6 -9 -22 -5 -21 2 -40 0 -43 -5 -4 -5 -41 -8 -83 -7 -68 1 -72
2 -32 8 l45 7 -45 2 c-57 2 -76 13 -65 37 9 22 12 30 14 44 0 6 13 10 29 10
15 1 45 7 67 15 25 9 43 11 49 5 13 -13 46 -13 46 0 0 6 6 10 14 10 14 0 31
29 22 37 -7 8 -38 -13 -34 -23 1 -5 -5 -10 -14 -12 -10 -2 -18 1 -18 5 0 11
62 59 73 55 4 -1 7 3 7 9 0 6 7 9 15 5 9 -3 15 0 15 9 0 7 14 24 31 36 26 18
33 19 40 8 7 -10 8 -6 4 11 -4 17 0 34 13 50 11 14 27 40 36 59 17 32 18 32
35 15 9 -11 20 -28 24 -38 6 -16 10 -17 20 -6 9 10 9 13 0 17 -7 3 -13 11 -13
19 0 8 -4 14 -10 14 -13 0 -13 27 0 35 5 3 7 0 4 -8 -3 -8 2 -17 12 -21 13 -5
15 -1 11 21 -5 26 -4 26 9 8 8 -10 14 -22 14 -26z m-730 -339 c0 -11 -4 -20
-10 -20 -5 0 -10 -13 -10 -30 0 -16 -5 -30 -11 -30 -6 0 -9 6 -6 14 3 8 9 31
13 50 7 38 24 49 24 16z m17 -42 c-3 -8 -6 -5 -6 6 -1 11 2 17 5 13 3 -3 4
-12 1 -19z m-72 -77 c3 -5 1 -12 -5 -16 -5 -3 -10 1 -10 9 0 18 6 21 15 7z
m-47 -26 c-3 -3 -9 2 -12 12 -6 14 -5 15 5 6 7 -7 10 -15 7 -18z m19 -27 c-3
-8 -6 -5 -6 6 -1 11 2 17 5 13 3 -3 4 -12 1 -19z m3920 16 c-3 -3 -12 -4 -19
-1 -8 3 -5 6 6 6 11 1 17 -2 13 -5z m-3952 -70 c-8 -16 -15 -23 -15 -16 0 13
22 53 27 48 2 -2 -3 -16 -12 -32z m-34 -27 c-10 -9 -11 -8 -5 6 3 10 9 15 12
12 3 -3 0 -11 -7 -18z m-21 -52 c0 -19 -33 -84 -42 -85 -5 0 -8 14 -8 32 0 17
3 28 7 25 10 -11 32 13 26 29 -3 8 0 14 6 14 6 0 11 -7 11 -15z m-100 -364 c0
-38 4 -61 13 -64 9 -3 9 -7 1 -17 -9 -9 -13 -5 -18 17 -12 62 -15 123 -6 123
6 0 10 -27 10 -59z"/>
<path d="M1961 1691 c-7 -12 -8 -21 -2 -21 5 0 12 6 14 13 3 6 6 2 6 -10 1
-12 6 -25 11 -28 7 -4 8 3 4 22 -9 40 -20 48 -33 24z"/>
<path d="M1940 1640 c0 -5 5 -10 10 -10 6 0 10 5 10 10 0 6 -4 10 -10 10 -5 0
-10 -4 -10 -10z"/>
<path d="M2052 1618 c-10 -13 -10 -19 3 -32 18 -17 55 -22 55 -7 0 5 -9 12
-19 16 -11 3 -21 13 -23 22 -3 15 -4 15 -16 1z"/>
<path d="M1975 1580 c-3 -5 1 -10 9 -10 9 0 16 5 16 10 0 6 -4 10 -9 10 -6 0
-13 -4 -16 -10z"/>
<path d="M2030 1538 c0 -19 2 -20 10 -8 13 19 13 30 0 30 -5 0 -10 -10 -10
-22z"/>
<path d="M1870 1540 c-8 -5 -11 -12 -7 -16 4 -4 13 -2 19 4 15 15 7 24 -12 12z"/>
<path d="M1970 1504 c0 -8 5 -12 10 -9 6 4 8 11 5 16 -9 14 -15 11 -15 -7z"/>
<path d="M1997 1484 c-4 -4 -7 -14 -7 -23 0 -11 3 -12 11 -4 6 6 10 16 7 23
-2 6 -7 8 -11 4z"/>
<path d="M1971 1434 c0 -11 3 -14 6 -6 3 7 2 16 -1 19 -3 4 -6 -2 -5 -13z"/>
<path d="M1665 1421 c-19 -8 -19 -8 2 -15 24 -8 43 -1 43 15 0 11 -17 11 -45
0z"/>
<path d="M1743 1406 c-13 -6 -23 -14 -23 -18 0 -13 13 -9 40 12 27 21 19 24
-17 6z"/>
<path d="M1580 1393 c0 -7 -7 -16 -15 -19 -18 -7 -20 -24 -2 -24 7 0 18 9 25
20 12 20 52 28 52 10 0 -5 7 -10 15 -10 25 0 17 17 -12 28 -37 14 -63 12 -63
-5z"/>
<path d="M1605 1360 c-3 -5 1 -10 9 -10 9 0 16 5 16 10 0 6 -4 10 -9 10 -6 0
-13 -4 -16 -10z"/>
<path d="M6279 3426 c-10 -20 -8 -28 10 -48 24 -25 114 -201 148 -288 11 -30
33 -95 48 -145 15 -49 33 -103 40 -120 14 -33 31 -119 40 -208 4 -32 9 -56 12
-53 3 3 0 54 -7 113 -12 100 -82 348 -124 438 -8 17 -24 55 -36 85 -26 68 -76
158 -102 187 -12 13 -18 29 -14 38 9 24 39 4 128 -87 51 -51 71 -67 58 -46
-29 50 -153 158 -182 158 -4 0 -13 -11 -19 -24z"/>
<path d="M6696 3385 c4 -8 8 -15 10 -15 2 0 4 7 4 15 0 8 -4 15 -10 15 -5 0
-7 -7 -4 -15z"/>
<path d="M6721 3334 c0 -11 3 -14 6 -6 3 7 2 16 -1 19 -3 4 -6 -2 -5 -13z"/>
<path d="M1597 3311 c-4 -17 -3 -21 5 -13 5 5 8 16 6 23 -3 8 -7 3 -11 -10z"/>
<path d="M6732 3290 c0 -14 3 -34 8 -45 l9 -20 -1 20 c0 11 -4 31 -8 45 l-8
25 0 -25z"/>
<path d="M1557 3283 c-4 -3 -7 -11 -7 -17 0 -6 5 -5 12 2 6 6 9 14 7 17 -3 3
-9 2 -12 -2z"/>
<path d="M6528 3208 c9 -21 20 -38 24 -38 14 0 9 14 -17 45 l-24 30 17 -37z"/>
<path d="M1689 3178 c-1 -13 -2 -36 -3 -51 -1 -16 -8 -32 -16 -37 -8 -5 -11
-12 -7 -16 14 -14 34 29 35 77 1 48 -7 70 -9 27z"/>
<path d="M1606 3175 c4 -8 11 -15 16 -15 6 0 5 6 -2 15 -7 8 -14 15 -16 15 -2
0 -1 -7 2 -15z"/>
<path d="M1570 3170 c0 -5 5 -10 11 -10 5 0 7 5 4 10 -3 6 -8 10 -11 10 -2 0
-4 -4 -4 -10z"/>
<path d="M2930 3160 c0 -13 11 -13 30 0 12 8 11 10 -7 10 -13 0 -23 -4 -23
-10z"/>
<path d="M1535 3130 c-3 -5 -1 -10 4 -10 6 0 11 5 11 10 0 6 -2 10 -4 10 -3 0
-8 -4 -11 -10z"/>
<path d="M1636 3054 c-9 -23 -2 -28 13 -10 7 8 8 17 3 20 -6 3 -13 -1 -16 -10z"/>
<path d="M1589 3004 c-7 -8 -26 -22 -42 -30 -16 -9 -26 -18 -23 -21 5 -5 106
55 106 63 0 11 -29 2 -41 -12z"/>
<path d="M6773 2890 c0 -25 2 -35 4 -22 2 12 2 32 0 45 -2 12 -4 2 -4 -23z"/>
<path d="M1540 2840 c-8 -5 -10 -10 -5 -10 6 0 17 5 25 10 8 5 11 10 5 10 -5
0 -17 -5 -25 -10z"/>
<path d="M6753 2785 c0 -22 2 -30 4 -17 2 12 2 30 0 40 -3 9 -5 -1 -4 -23z"/>
<path d="M2950 2806 c0 -2 26 -19 59 -39 82 -51 216 -107 270 -113 l46 -5 -55
19 c-120 42 -213 82 -257 111 -42 28 -63 37 -63 27z"/>
<path d="M3416 2659 c-11 -11 -17 -21 -14 -24 2 -3 13 4 23 15 24 26 16 33 -9
9z"/>
<path d="M2912 2592 c14 -15 41 -56 61 -92 70 -128 199 -285 243 -296 30 -8
45 3 18 12 -20 7 -96 83 -122 122 -12 18 -12 26 -3 35 10 9 11 8 5 -7 -6 -16
-4 -18 10 -13 24 9 42 -2 25 -15 -10 -6 -7 -7 10 -3 17 5 22 4 16 -5 -6 -9 -4
-11 4 -5 18 10 66 -36 49 -47 -8 -5 -1 -6 16 -2 21 5 27 4 22 -5 -5 -7 2 -11
18 -11 14 0 35 -9 47 -21 13 -13 30 -19 47 -17 24 3 22 5 -23 28 -28 13 -81
43 -118 67 -37 24 -71 43 -76 43 -5 0 -14 7 -22 16 -8 9 -21 13 -35 10 -17 -5
-26 0 -36 18 -7 13 -28 48 -45 77 -41 68 -44 92 -7 79 33 -13 194 -13 214 0
10 7 -23 10 -102 10 -64 0 -119 4 -122 9 -3 5 -16 11 -28 14 -13 3 -38 10 -57
16 l-34 11 25 -28z"/>
<path d="M4580 2585 c-26 -28 -24 -30 14 -15 14 5 26 16 26 25 0 22 -13 19
-40 -10z"/>
<path d="M6011 2530 c0 -33 1 -34 10 -11 6 16 6 28 -1 35 -7 7 -10 -1 -9 -24z"/>
<path d="M6582 2430 c0 -101 2 -117 10 -83 6 27 6 74 0 125 l-9 83 -1 -125z"/>
<path d="M6751 2534 c0 -11 3 -14 6 -6 3 7 2 16 -1 19 -3 4 -6 -2 -5 -13z"/>
<path d="M4328 2503 c7 -3 16 -2 19 1 4 3 -2 6 -13 5 -11 0 -14 -3 -6 -6z"/>
<path d="M6060 2484 c1 -24 49 -236 49 -217 1 26 -36 213 -44 221 -3 3 -5 1
-5 -4z"/>
<path d="M6023 2420 c0 -36 2 -50 4 -32 2 17 2 47 0 65 -2 17 -4 3 -4 -33z"/>
<path d="M4040 2460 c18 -12 70 -12 125 -1 33 7 25 9 -50 10 -61 0 -85 -2 -75
-9z"/>
<path d="M5934 2325 c0 -66 1 -92 3 -57 2 34 2 88 0 120 -2 31 -3 3 -3 -63z"/>
<path d="M4766 2242 l-19 -27 26 24 c28 26 32 31 20 31 -5 0 -17 -13 -27 -28z"/>
<path d="M6002 2235 c0 -16 2 -22 5 -12 2 9 2 23 0 30 -3 6 -5 -1 -5 -18z"/>
<path d="M3285 2230 c-3 -5 -1 -10 4 -10 6 0 11 5 11 10 0 6 -2 10 -4 10 -3 0
-8 -4 -11 -10z"/>
<path d="M6107 2100 c-8 -135 -27 -241 -51 -288 -34 -66 -175 -142 -261 -142
-25 0 -45 -4 -45 -10 0 -5 22 -10 49 -10 28 0 53 5 56 10 3 6 15 10 27 10 32
0 136 60 168 96 37 43 47 79 67 252 11 98 13 152 6 175 -8 26 -10 10 -16 -93z"/>
<path d="M3432 2134 c10 -10 20 -15 24 -12 3 4 -5 12 -18 18 -22 12 -22 12 -6
-6z"/>
<path d="M5911 2134 c0 -11 3 -14 6 -6 3 7 2 16 -1 19 -3 4 -6 -2 -5 -13z"/>
<path d="M3373 2111 c-32 -26 -29 -32 7 -15 17 9 30 20 30 25 0 14 -13 10 -37
-10z"/>
<path d="M5890 2060 c-15 -55 -7 -63 9 -9 7 22 10 43 7 46 -2 3 -10 -14 -16
-37z"/>
<path d="M6546 2085 c-9 -26 -7 -32 5 -12 6 10 9 21 6 23 -2 3 -7 -2 -11 -11z"/>
<path d="M3148 2053 c12 -2 32 -2 45 0 12 2 2 4 -23 4 -25 0 -35 -2 -22 -4z"/>
<path d="M6506 2005 c-3 -8 -1 -15 4 -15 6 0 10 7 10 15 0 8 -2 15 -4 15 -2 0
-6 -7 -10 -15z"/>
<path d="M6478 1958 c-24 -36 -66 -78 -78 -78 -5 0 -10 -3 -10 -8 0 -10 -58
-34 -72 -30 -12 4 -58 -42 -58 -57 0 -19 -160 -164 -205 -186 -96 -46 -290
-21 -310 41 -6 18 -65 69 -65 55 0 -3 11 -23 25 -44 30 -44 96 -83 172 -101
47 -11 60 -10 120 10 112 35 209 113 278 221 24 40 35 48 67 52 21 3 55 17 74
32 36 28 91 101 82 111 -3 2 -12 -6 -20 -18z"/>
<path d="M110 1558 c0 -62 86 -225 108 -203 3 3 -6 18 -21 33 -16 17 -35 57
-49 102 -24 83 -38 108 -38 68z"/>
<path d="M245 1410 c3 -5 8 -10 11 -10 2 0 4 5 4 10 0 6 -5 10 -11 10 -5 0 -7
-4 -4 -10z"/>
<path d="M750 1359 c-6 -13 -21 -42 -35 -64 -68 -111 -117 -212 -135 -281 -24
-88 -21 -110 4 -32 26 80 109 249 121 245 6 -2 10 -56 10 -143 1 -76 4 -159 8
-184 17 -97 31 -151 40 -157 6 -4 8 3 3 18 -34 121 -41 402 -13 539 16 78 15
100 -3 59z"/>
<path d="M248 1330 c30 -25 150 -70 209 -78 47 -7 48 -8 54 -47 6 -39 9 -36
14 15 1 14 5 33 9 42 7 15 3 16 -26 11 -39 -6 -131 16 -222 52 -51 20 -57 21
-38 5z"/>
<path d="M1460 1203 c0 -22 2 -25 10 -13 13 20 13 40 0 40 -5 0 -10 -12 -10
-27z"/>
<path d="M1017 1148 c-4 -14 -9 -34 -13 -45 -3 -10 1 -7 10 7 15 25 15 24 16
-23 0 -27 -4 -46 -9 -43 -17 11 -19 -34 -2 -79 21 -58 47 -58 44 0 -2 21 -7
43 -13 49 -5 5 -10 35 -11 66 0 30 -4 64 -8 75 -7 18 -8 17 -14 -7z"/>
<path d="M1440 1140 c0 -11 5 -20 10 -20 6 0 10 9 10 20 0 11 -4 20 -10 20 -5
0 -10 -9 -10 -20z"/>
<path d="M494 995 c0 -82 2 -115 3 -72 2 43 2 110 0 150 -1 40 -3 5 -3 -78z"/>
<path d="M1381 1094 c0 -11 3 -14 6 -6 3 7 2 16 -1 19 -3 4 -6 -2 -5 -13z"/>
<path d="M980 1059 c0 -5 5 -7 10 -4 6 3 10 8 10 11 0 2 -4 4 -10 4 -5 0 -10
-5 -10 -11z"/>
<path d="M969 1023 c5 -11 7 -29 4 -41 -3 -13 -1 -22 6 -22 17 0 10 72 -7 78
-11 3 -12 0 -3 -15z"/>
<path d="M1044 906 c-14 -11 -18 -24 -16 -53 2 -21 8 -42 14 -48 7 -7 9 3 4
33 -4 27 -3 41 3 38 9 -6 27 31 19 40 -3 2 -13 -2 -24 -10z"/>
<path d="M981 884 c0 -11 3 -14 6 -6 3 7 2 16 -1 19 -3 4 -6 -2 -5 -13z"/>
<path d="M977 778 c-6 -71 -4 -88 14 -125 11 -24 25 -43 30 -43 13 0 11 44 -3
58 -13 13 -15 21 -24 117 -3 39 -7 71 -9 73 -1 1 -5 -35 -8 -80z"/>
<path d="M521 805 c0 -11 4 -29 9 -40 l9 -20 0 20 c0 11 -4 29 -9 40 l-9 20 0
-20z"/>
<path d="M796 680 c28 -52 64 -92 64 -72 0 7 -3 12 -8 12 -4 0 -22 25 -40 55
-41 69 -53 72 -16 5z"/>
<path d="M638 653 c7 -3 16 -2 19 1 4 3 -2 6 -13 5 -11 0 -14 -3 -6 -6z"/>
</g>
</svg>
